<?xml version="1.0" encoding="UTF-8"?>
<svg version="1.1" xmlns="http://www.w3.org/2000/svg" width="866" height="650">
<path d="M0 0 C285.78 0 571.56 0 866 0 C866 214.5 866 429 866 650 C580.22 650 294.44 650 0 650 C0 435.5 0 221 0 0 Z " fill="#FEFEFE" transform="translate(0,0)"/>
<path d="M0 0 C74.91 0 149.82 0 227 0 C225.40562327 7.17469528 223.77945085 14.33919736 222.125 21.5 C221.88136719 22.55703125 221.63773438 23.6140625 221.38671875 24.703125 C219.28461028 33.80863114 217.14043038 42.90317091 215 52 C144.05 52 73.1 52 0 52 C1.65060233 48.69879534 2.73873324 46.9912802 5.1875 44.43359375 C5.80367187 43.78326172 6.41984375 43.13292969 7.0546875 42.46289062 C8.01761719 41.46032227 8.01761719 41.46032227 9 40.4375 C10.27274913 39.10469142 11.54365927 37.77012368 12.8125 36.43359375 C13.65748047 35.55272095 13.65748047 35.55272095 14.51953125 34.65405273 C16.195549 32.86007264 16.195549 32.86007264 18 30 C18.66 30 19.32 30 20 30 C17.24624434 24.72196832 13.93134371 20.31059417 10.171875 15.703125 C7.87867943 12.84900389 5.67444252 9.94552142 3.5 7 C2.8296875 6.0925 2.159375 5.185 1.46875 4.25 C0 2 0 2 0 0 Z " fill="#030303" transform="translate(187,311)"/>
<path d="M0 0 C0.75417583 -0.00129787 1.50835167 -0.00259575 2.28538132 -0.00393295 C43.6668676 -0.0575422 84.80744025 2.36572508 125.73706055 8.67895508 C128.72977741 9.13765562 131.72550374 9.56160169 134.72583008 9.9675293 C148.65800174 11.86313008 162.44172114 14.35893506 176.25 17 C178.46671522 17.42035272 180.68351177 17.84027674 182.90039062 18.25976562 C188.24703711 19.27242691 193.59267212 20.29028584 198.9375 21.3125 C199.74611565 24.63009131 200.04628354 26.99794317 199.16015625 30.30078125 C198.97646484 31.00654297 198.79277344 31.71230469 198.60351562 32.43945312 C198.30477539 33.52129883 198.30477539 33.52129883 198 34.625 C197.80470703 35.36556641 197.60941406 36.10613281 197.40820312 36.86914062 C196.9275719 38.68616113 196.43383486 40.49970614 195.9375 42.3125 C190.6092085 42.46407066 186.24381864 42.10688127 181.0625 40.6875 C179.64770539 40.31553363 178.23229402 39.94590838 176.81640625 39.578125 C176.04055176 39.37509766 175.26469727 39.17207031 174.46533203 38.96289062 C156.12767337 34.24476018 137.62310805 30.64679641 118.98373413 27.38693237 C114.62998921 26.62241273 110.28808095 25.81070715 105.94921875 24.96484375 C88.96509081 21.69210537 71.96948608 19.65511385 54.76100159 18.05499268 C50.4071454 17.64952912 46.05711609 17.22478218 41.70996094 16.75244141 C14.88640083 13.83813274 -11.73003092 12.95062971 -38.6875 13 C-39.46515465 13.00112289 -40.2428093 13.00224579 -41.04402924 13.00340271 C-65.28196153 13.04546743 -89.39043716 13.4433307 -113.5 16.125 C-115.14533759 16.3042677 -116.79068281 16.48346542 -118.43603516 16.66259766 C-123.31322022 17.19796805 -128.18803398 17.75299137 -133.0625 18.3125 C-134.13162628 18.43398407 -134.13162628 18.43398407 -135.22235107 18.55792236 C-165.7118916 22.02695373 -196.12085308 27.0712964 -225.53515625 35.9609375 C-228.78338443 36.94009263 -232.04119041 37.87592774 -235.30859375 38.7890625 C-244.51128938 41.36393141 -253.54393679 44.03723601 -262.4453125 47.52734375 C-265.0625 48.3125 -265.0625 48.3125 -268.0625 47.3125 C-253.35831451 41.38525596 -238.71095859 35.48191276 -223.48095703 31.02490234 C-220.85468419 30.25128391 -218.23820756 29.44856499 -215.62109375 28.64453125 C-192.36784328 21.58739909 -168.32113981 15.61075308 -144.3125 11.8125 C-142.75776089 11.56151739 -141.20307472 11.31020669 -139.6484375 11.05859375 C-138.87854492 10.93468262 -138.10865234 10.81077148 -137.31542969 10.68310547 C-135.21982952 10.3383806 -133.1293357 9.97316368 -131.0390625 9.59765625 C-111.24591074 6.07775856 -91.17129792 3.62560944 -71.125 2.125 C-70.17117432 2.05337646 -69.21734863 1.98175293 -68.23461914 1.90795898 C-45.51822784 0.36043891 -22.76089324 0.03245417 0 0 Z " fill="#080808" transform="translate(457.0625,501.6875)"/>
<path d="M0 0 C1.68263778 1.46097293 3.35063893 2.93906086 5 4.4375 C5.72703125 5.07171875 6.4540625 5.7059375 7.203125 6.359375 C13.94110454 12.58300495 19.06414396 20.72969397 22 29.4375 C22 30.7575 22 32.0775 22 33.4375 C22.77859375 33.2209375 23.5571875 33.004375 24.359375 32.78125 C46.0823889 27.37552304 66.76005009 30.15991176 86.11572266 41.28710938 C103.52681176 51.91694247 115.77744612 65.90215156 122 85.4375 C126.46228829 104.93514181 122.70362108 124.29658214 112.953125 141.40234375 C109.70574017 146.44877977 105.99386839 150.9686851 102 155.4375 C101.45988281 156.08332031 100.91976563 156.72914063 100.36328125 157.39453125 C93.33885095 165.23287538 83.05282815 169.54296427 73.6394043 173.84619141 C49.40897736 184.96503767 41.57023137 207.904276 29.96725464 230.64381409 C26.06325561 238.28693155 22.05371608 245.87287313 18 253.4375 C11.73590058 252.72317287 5.7131328 251.55412109 -0.4375 250.15625 C-7.77916698 248.67503649 -14.89917784 248.26028418 -22.3671875 248.19921875 C-23.35136658 248.18947021 -24.33554565 248.17972168 -25.34954834 248.16967773 C-45.93082345 248.00770016 -65.81189825 247.99706627 -86 252.4375 C-87.82912609 252.80488718 -89.6585542 253.17077387 -91.48828125 253.53515625 C-106.82374274 256.7098034 -123.31271043 260.29063662 -137.66381836 266.6105957 C-140 267.4375 -140 267.4375 -143 266.4375 C-120.84745271 257.80313321 -98.27077522 251.03600166 -74.83300781 246.94140625 C-72.28298606 246.48783465 -69.74879528 245.98506911 -67.2109375 245.46875 C-54.8991175 243.15667113 -42.54659736 243.15000024 -30.0625 243.125 C-28.7336377 243.11948624 -28.7336377 243.11948624 -27.37792969 243.11386108 C-4.13709025 243.06354109 -4.13709025 243.06354109 5.93725586 246.00268555 C8.96061799 246.63999268 11.92210422 246.4966903 15 246.4375 C15.57331055 245.229729 15.57331055 245.229729 16.15820312 243.99755859 C29.2349846 216.51035277 29.2349846 216.51035277 35.3515625 206.27734375 C37.02702964 203.39093472 38.45398534 200.45617478 39.875 197.4375 C47.95453096 181.16954953 57.24191495 173.35444332 73.80859375 165.8828125 C88.47021109 159.24291236 99.24015737 150.66752128 107 136.4375 C107.57814453 135.44169922 107.57814453 135.44169922 108.16796875 134.42578125 C116.00798854 120.09746922 118.63238707 102.24190129 114.08984375 86.5 C106.77682751 65.95016226 93.01618901 53.78600009 73.84765625 43.98046875 C64.61307832 39.96880931 55.22588143 38.91032916 45.25 39 C44.12416504 39.00322266 42.99833008 39.00644531 41.83837891 39.00976562 C32.73705015 39.16099813 24.62201974 40.52007942 16 43.4375 C15.89042969 42.73625 15.78085937 42.035 15.66796875 41.3125 C13.59518135 28.90947948 9.53257238 19.06220835 0 10.4375 C-0.53882813 9.91800781 -1.07765625 9.39851563 -1.6328125 8.86328125 C-24.13985085 -12.0899239 -54.77371724 -17.71241371 -84.44042969 -16.78027344 C-99.18583377 -15.87815407 -112.33756286 -10.93186295 -125 -3.5625 C-125.86882812 -3.0571875 -126.73765625 -2.551875 -127.6328125 -2.03125 C-142.13418881 7.06368984 -153.5484586 20.64695501 -158.1875 37.3203125 C-159.17961649 41.65847239 -159.30602825 45.87677162 -159.25 50.3125 C-159.24178223 51.10769043 -159.23356445 51.90288086 -159.22509766 52.72216797 C-158.80489247 74.81230952 -147.66893271 96.30963185 -133 112.4375 C-132.27683594 113.118125 -131.55367188 113.79875 -130.80859375 114.5 C-128.81973027 116.43048197 -127.36503876 118.02551063 -126 120.4375 C-126.06835938 122.81689453 -126.06835938 122.81689453 -126.65625 125.4453125 C-126.86548096 126.41887695 -127.07471191 127.39244141 -127.2902832 128.39550781 C-127.52448975 129.39936523 -127.75869629 130.40322266 -128 131.4375 C-128.30973755 132.85434082 -128.30973755 132.85434082 -128.62573242 134.29980469 C-129.29041701 137.30963938 -129.98534962 140.31119253 -130.6875 143.3125 C-130.94515137 144.42310791 -131.20280273 145.53371582 -131.46826172 146.67797852 C-133.75345337 156.48463329 -136.13265638 166.26807671 -138.52294922 176.04956055 C-140.45081847 183.99270585 -142.23923191 191.95008029 -143.75830078 199.98217773 C-144.78954386 205.22704386 -144.78954386 205.22704386 -147 207.4375 C-147.11688719 202.7879468 -146.79567838 198.68806879 -145.75 194.16015625 C-145.47494629 192.94312012 -145.19989258 191.72608398 -144.91650391 190.47216797 C-144.76739563 189.82648865 -144.61828735 189.18080933 -144.46466064 188.51556396 C-143.65362096 184.99750756 -142.86958108 181.47346293 -142.0859375 177.94921875 C-141.83497818 176.8224472 -141.83497818 176.8224472 -141.57894897 175.6729126 C-139.4574011 166.08083848 -137.54175943 156.44718358 -135.625 146.8125 C-135.36299805 145.4999675 -135.36299805 145.4999675 -135.09570312 144.16091919 C-134.59616106 141.65705297 -134.09835979 139.15284964 -133.6015625 136.6484375 C-133.45393463 135.90596268 -133.30630676 135.16348785 -133.15420532 134.39851379 C-132.76249301 132.41287288 -132.38088986 130.42524528 -132 128.4375 C-131.75185547 127.35227051 -131.50371094 126.26704102 -131.24804688 125.14892578 C-130.76907517 122.4898848 -130.76907517 122.4898848 -131.93701172 120.50976562 C-132.42959473 119.95998047 -132.92217773 119.41019531 -133.4296875 118.84375 C-133.97343018 118.213479 -134.51717285 117.58320801 -135.07739258 116.93383789 C-135.67060303 116.27504639 -136.26381348 115.61625488 -136.875 114.9375 C-138.08976728 113.51347641 -139.29935714 112.08502103 -140.50390625 110.65234375 C-141.10219238 109.94190918 -141.70047852 109.23147461 -142.31689453 108.49951172 C-158.55068343 88.61111877 -166.85743381 65.03169272 -165 39.4375 C-164.19652501 34.80541828 -162.87483406 30.74122355 -161 26.4375 C-160.53722656 25.37402344 -160.07445312 24.31054688 -159.59765625 23.21484375 C-149.9272132 3.37743124 -130.7823183 -11.46786862 -110.2890625 -18.91015625 C-106.87842227 -19.9180196 -103.46457331 -20.76205016 -100 -21.5625 C-98.98808594 -21.85898438 -97.97617187 -22.15546875 -96.93359375 -22.4609375 C-64.35446482 -31.17535481 -26.01675413 -20.71374953 0 0 Z " fill="#111111" transform="translate(568,116.5625)"/>
<path d="M0 0 C22.11 0 44.22 0 67 0 C60.30382294 10.04426559 60.30382294 10.04426559 56.4375 14.125 C52.93552858 17.91091505 49.88024968 21.72608113 47 26 C48.32972165 28.90121088 49.8094802 31.12744003 51.9375 33.5 C52.5459375 34.18320312 53.154375 34.86640625 53.78125 35.5703125 C55.47928627 37.4297818 57.18761646 39.27691042 58.90625 41.1171875 C59.40648682 41.65537109 59.90672363 42.19355469 60.42211914 42.74804688 C61.42437662 43.82409712 62.43131926 44.89580436 63.44311523 45.96289062 C67 49.77779098 67 49.77779098 67 52 C36.64 52 6.28 52 -25 52 C-24.1611956 46.96717359 -23.46946157 44.48334454 -21.19140625 40.17578125 C-20.60810547 39.06267578 -20.02480469 37.94957031 -19.42382812 36.80273438 C-18.80958984 35.65095703 -18.19535156 34.49917969 -17.5625 33.3125 C-16.98306641 32.21099609 -16.40363281 31.10949219 -15.80664062 29.97460938 C-13.87845578 26.31252049 -11.93887739 22.65643902 -10 19 C-6.7 12.73 -3.4 6.46 0 0 Z " fill="#040404" transform="translate(626,311)"/>
<path d="M0 0 C3 0 3 0 4.640625 1.43359375 C5.17171875 2.09488281 5.7028125 2.75617188 6.25 3.4375 C6.79140625 4.07558594 7.3328125 4.71367187 7.890625 5.37109375 C10.92008138 12.55005199 6.87502548 21.93726128 4.9375 29.0625 C4.65583984 30.11888672 4.37417969 31.17527344 4.08398438 32.26367188 C3.39510271 34.84405915 2.70034171 37.42270414 2 40 C3.39977344 38.60022656 4.04919937 37.01093733 4.93359375 35.23828125 C8.99201272 27.22939314 13.08728163 19.38219414 18.3125 12.0625 C18.90599243 11.22295776 18.90599243 11.22295776 19.51147461 10.36645508 C21.98466604 7.00749913 24.64363653 4.46529352 28 2 C31.30221563 3.22304283 33.93067479 5.15766388 36.07421875 7.96484375 C40.49375798 17.68037092 33.64398211 34.83421238 31.44311523 44.66259766 C30.90687075 47.09474479 30.90687075 47.09474479 31 50 C31.45375 49.175 31.9075 48.35 32.375 47.5 C32.91125 46.675 33.4475 45.85 34 45 C34.66 45 35.32 45 36 45 C35.47710504 49.97886939 33.77502329 53.66613523 31.3125 57.9375 C27.1677772 65.37941736 23.98355902 73.03254127 21 81 C16.25 80.25 16.25 80.25 14 78 C14.81570033 72.94265796 16.21209842 68.29228273 17.890625 63.4609375 C19.98742071 57.21070787 21.64428837 50.92162283 23.125 44.5 C23.38361816 43.38447754 23.64223633 42.26895508 23.90869141 41.11962891 C26.13490229 31.13087849 27.33222641 21.20081726 28 11 C20.02115576 18.25349477 14.83110566 27.63393189 9.9375 37.125 C9.41728271 38.12547363 8.89706543 39.12594727 8.36108398 40.15673828 C4.77476685 47.17635635 1.83948676 54.21455725 -0.75390625 61.6484375 C-2.38992851 66.04877322 -4.50807447 70.0305611 -7 74 C-11.75 73.25 -11.75 73.25 -14 71 C-13.67652891 66.3317241 -12.10412389 61.9887685 -10.67602539 57.56274414 C-7.5940103 47.9933026 -5.04224026 38.42087325 -3.0625 28.5625 C-2.85141602 27.52762451 -2.64033203 26.49274902 -2.42285156 25.42651367 C-1.34776909 19.84712767 -0.77657655 14.68037195 -1 9 C-1.40992188 9.5775 -1.81984375 10.155 -2.2421875 10.75 C-3.05042969 11.86375 -3.05042969 11.86375 -3.875 13 C-4.40867187 13.7425 -4.94234375 14.485 -5.4921875 15.25 C-6.23855469 16.11625 -6.23855469 16.11625 -7 17 C-7.66 17 -8.32 17 -9 17 C-8.34306697 13.50446743 -6.92211344 10.9519834 -5.0625 7.9375 C-4.53785156 7.08027344 -4.01320313 6.22304688 -3.47265625 5.33984375 C-2.34168492 3.54288931 -1.17776077 1.76664116 0 0 Z " fill="#111111" transform="translate(582,409)"/>
<path d="M0 0 C4.47772024 0.77873395 7.2121348 3.91625923 9.875 7.5 C9.875 8.49 9.875 9.48 9.875 10.5 C8.67875 10.355625 7.4825 10.21125 6.25 10.0625 C3.70005049 10.07505446 2.35674416 10.12084386 0.33300781 11.71362305 C-3.78099283 16.70181243 -6.81375799 22.00193301 -9.75 27.75 C-10.2140625 28.62785156 -10.678125 29.50570313 -11.15625 30.41015625 C-15.77218585 39.31604377 -19.25531256 48.26929633 -20.875 58.1875 C-21.00003906 58.90099609 -21.12507812 59.61449219 -21.25390625 60.34960938 C-21.55321344 62.0648698 -21.84049969 63.78222159 -22.125 65.5 C-8.98578293 58.43878811 2.8418475 33.48327139 7.93359375 19.6171875 C8.41204615 17.99590319 8.86683252 16.36729536 9.2890625 14.73046875 C10.21289164 11.21375915 11.55813051 7.88623583 12.875 4.5 C18.14772727 6.86363636 18.14772727 6.86363636 19.875 9.5 C19.25228601 17.00319315 16.95766116 24.26395172 15.046875 31.51953125 C13.49962822 37.53407387 12.39201129 43.30878981 11.875 49.5 C12.32875 48.84 12.7825 48.18 13.25 47.5 C13.78625 46.84 14.3225 46.18 14.875 45.5 C15.535 45.5 16.195 45.5 16.875 45.5 C16.28393966 48.89113406 15.42008522 51.84131567 14.0625 55 C11.57274997 61.03741582 9.71945156 67.24063778 7.875 73.5 C5.00775314 72.92655063 4.0135485 72.6385485 1.875 70.5 C0.22911558 60.29934422 3.39395469 49.51402882 5.5078125 39.57788086 C5.96200817 37.35930775 5.96200817 37.35930775 5.875 34.5 C5.58890869 35.04301758 5.30281738 35.58603516 5.00805664 36.14550781 C-11.43557644 67.17469925 -11.43557644 67.17469925 -21.125 72.625 C-23.81727807 72.45673262 -25.35762568 71.45644544 -27.13671875 69.45703125 C-30.94048806 61.92466593 -27.83739207 51.79091232 -25.45703125 44.24609375 C-10.61191345 2.49692081 -10.61191345 2.49692081 0 0 Z " fill="#0E0E0E" transform="translate(546.125,409.5)"/>
<path d="M0 0 C4.51146757 0.85725149 4.51146757 0.85725149 6.55078125 1.6484375 C8.99837749 5.31983186 8.86724241 6.81692934 8.28125 11.04296875 C6.11176644 18.78118017 0.44899371 26.43554317 -6.44921875 30.6484375 C-9.55665062 31.71439646 -12.43081626 31.7539428 -15.69921875 31.7109375 C-16.59125 31.70191406 -17.48328125 31.69289063 -18.40234375 31.68359375 C-19.0778125 31.67199219 -19.75328125 31.66039062 -20.44921875 31.6484375 C-20.44921875 30.9884375 -20.44921875 30.3284375 -20.44921875 29.6484375 C-19.73636719 29.46410156 -19.02351563 29.27976562 -18.2890625 29.08984375 C-9.56384853 26.44761879 -5.77362285 22.45460161 -1.32421875 14.68359375 C0.4659324 11.03136574 0.83871222 8.51223041 -0.44921875 4.6484375 C-6.12965137 4.10532404 -9.7021287 5.88026643 -14.57421875 8.4609375 C-15.62802734 8.99557617 -15.62802734 8.99557617 -16.703125 9.54101562 C-23.25901793 12.48485016 -23.25901793 12.48485016 -27.1953125 17.97265625 C-27.46573277 20.82246985 -27.54620608 23.5984887 -27.51171875 26.4609375 C-27.50269531 27.43675781 -27.49367187 28.41257812 -27.484375 29.41796875 C-27.47277344 30.15402344 -27.46117187 30.89007813 -27.44921875 31.6484375 C-20.2924973 34.79481594 -13.14530259 37.46305001 -5.65234375 39.69140625 C0.92767469 41.65738737 7.42836993 43.85807573 13.87109375 46.234375 C14.62422852 46.50910645 15.37736328 46.78383789 16.15332031 47.06689453 C17.63490397 47.60903827 19.11361087 48.15912958 20.58886719 48.71826172 C24.69773215 50.21686841 28.11009282 51.14040881 32.55078125 50.6484375 C33.54078125 49.9884375 34.53078125 49.3284375 35.55078125 48.6484375 C36.54078125 48.6484375 37.53078125 48.6484375 38.55078125 48.6484375 C38.2199452 51.62596196 37.67662773 53.46218471 35.98828125 55.9609375 C32.59165316 58.31244925 29.51866287 58.06371617 25.55078125 57.6484375 C22.52075771 56.92127431 19.65147348 55.87234166 16.73828125 54.7734375 C15.8987793 54.46897705 15.05927734 54.1645166 14.19433594 53.85083008 C11.30724206 52.79873145 8.42864403 51.72552433 5.55078125 50.6484375 C1.99951665 49.32359508 -1.55194077 47.9992906 -5.10424805 46.67724609 C-7.45805764 45.79902335 -9.80987407 44.91543539 -12.15942383 44.02587891 C-17.88151484 41.87803442 -23.47857433 39.96634804 -29.44921875 38.6484375 C-29.36671875 39.6590625 -29.28421875 40.6696875 -29.19921875 41.7109375 C-29.18323383 46.14675311 -30.19489113 50.2620062 -31.32421875 54.5234375 C-31.49791992 55.18996338 -31.67162109 55.85648926 -31.85058594 56.54321289 C-32.68226196 59.54977552 -33.20799609 61.40721484 -35.44921875 63.6484375 C-39.07421875 63.7734375 -39.07421875 63.7734375 -42.44921875 63.6484375 C-42.44921875 60.0184375 -42.44921875 56.3884375 -42.44921875 52.6484375 C-40.79921875 52.6484375 -39.14921875 52.6484375 -37.44921875 52.6484375 C-35.343465 47.12083391 -34.07070666 42.57846017 -34.44921875 36.6484375 C-35.93421875 36.1534375 -35.93421875 36.1534375 -37.44921875 35.6484375 C-37.44921875 34.9884375 -37.44921875 34.3284375 -37.44921875 33.6484375 C-36.49015625 33.2153125 -36.49015625 33.2153125 -35.51171875 32.7734375 C-33.29715796 31.82020299 -33.29715796 31.82020299 -32.44921875 29.6484375 C-32.22299794 27.94479928 -32.04033402 26.23515049 -31.88671875 24.5234375 C-31.80292969 23.61335938 -31.71914062 22.70328125 -31.6328125 21.765625 C-31.54193359 20.71761719 -31.54193359 20.71761719 -31.44921875 19.6484375 C-44.43432356 27.83521554 -44.43432356 27.83521554 -53.44921875 39.6484375 C-53.14820012 42.95964241 -51.92063407 44.4993807 -49.44921875 46.6484375 C-54.70974912 46.96406932 -57.89495691 46.31434687 -62.44921875 43.6484375 C-62.02737133 38.72688429 -60.0659343 36.88039608 -56.44921875 33.6484375 C-55.89234375 33.13539063 -55.33546875 32.62234375 -54.76171875 32.09375 C-49.79273549 27.60096097 -44.48473291 23.61810984 -39.0859375 19.6640625 C-34.63326025 16.41543773 -34.63326025 16.41543773 -32.76171875 11.4609375 C-32.65859375 10.5328125 -32.55546875 9.6046875 -32.44921875 8.6484375 C-31.33546875 8.7721875 -30.22171875 8.8959375 -29.07421875 9.0234375 C-22.55034769 9.05826243 -17.27926186 4.94885062 -12.3828125 0.96875 C-8.68666541 -1.55508377 -4.22060929 -0.60582908 0 0 Z " fill="#121212" transform="translate(264.44921875,442.3515625)"/>
<path d="M0 0 C3.125 0.375 3.125 0.375 6 1 C7.17062585 5.17320513 6.74217493 7.61206634 5.375 11.6875 C1.93985118 22.89377221 0.10403509 34.48495362 -2 46 C-1.01 43.69 -0.02 41.38 1 39 C1.33 39 1.66 39 2 39 C1.39700836 46.23589973 -0.1150587 52.99370876 -2 60 C-4.69385475 59.63596557 -6.57411887 59.31150694 -8.7890625 57.69140625 C-12.35514067 52.71040029 -9.83370536 44.51642288 -8.92041016 38.86547852 C-8.30811186 35.23826891 -7.66219792 31.61843861 -7 28 C-7.4846875 28.99257813 -7.969375 29.98515625 -8.46875 31.0078125 C-10.60673327 35.35863537 -12.79618328 39.68222174 -15 44 C-15.35223633 44.69818848 -15.70447266 45.39637695 -16.06738281 46.11572266 C-17.06336942 48.06960572 -18.08865279 50.00478372 -19.125 51.9375 C-19.72570312 53.08089844 -20.32640625 54.22429687 -20.9453125 55.40234375 C-23 58 -23 58 -26.06640625 58.96484375 C-29.61808761 59.00740718 -31.18259827 58.092927 -34 56 C-35.74122101 54.25877899 -35.16533799 51.99939367 -35.18945312 49.67749023 C-35.18880859 48.93829346 -35.18816406 48.19909668 -35.1875 47.4375 C-35.1884668 46.3084021 -35.1884668 46.3084021 -35.18945312 45.15649414 C-35.11786391 37.34594862 -34.16270013 29.71326958 -33 22 C-33.99 22.33 -34.98 22.66 -36 23 C-35.31371881 18.89002388 -34.05572763 15.1984366 -32.5625 11.3125 C-31.91474609 9.60513672 -31.91474609 9.60513672 -31.25390625 7.86328125 C-30 5 -30 5 -28 3 C-25.38419521 3.3269756 -23.35921863 3.82039068 -21 5 C-21.14115234 5.56082275 -21.28230469 6.12164551 -21.42773438 6.69946289 C-22.48211855 10.93814125 -23.48636649 15.18892756 -24.5 19.4375 C-24.72558594 20.37916016 -24.95117188 21.32082031 -25.18359375 22.29101562 C-25.40144531 23.20431641 -25.61929687 24.11761719 -25.84375 25.05859375 C-26.04162109 25.88673584 -26.23949219 26.71487793 -26.44335938 27.56811523 C-27.36977477 31.61549409 -28.11862469 35.49111858 -28.31640625 39.64453125 C-28.35830078 40.48564453 -28.40019531 41.32675781 -28.44335938 42.19335938 C-28.50233398 43.48983398 -28.50233398 43.48983398 -28.5625 44.8125 C-28.62727539 46.13797852 -28.62727539 46.13797852 -28.69335938 47.49023438 C-28.79891536 49.65999623 -28.89991071 51.8299791 -29 54 C-23.39593021 52.13197674 -20.9383104 46.05814722 -18.38671875 41.0234375 C-17.47776092 39.14505791 -16.5784133 37.26200496 -15.6875 35.375 C-14.97509155 33.88093628 -14.97509155 33.88093628 -14.24829102 32.35668945 C-10.58253044 24.53989436 -7.38473519 16.59805642 -4.46166992 8.47607422 C-4.16365479 7.65252441 -3.86563965 6.82897461 -3.55859375 5.98046875 C-3.17658813 4.89608521 -3.17658813 4.89608521 -2.78686523 3.78979492 C-2 2 -2 2 0 0 Z " fill="#0D0D0D" transform="translate(470,418)"/>
<path d="M0 0 C3.40272458 0.89545384 5.76692552 1.81964054 8.5625 3.9375 C8.5625 4.5975 8.5625 5.2575 8.5625 5.9375 C6.768125 5.9684375 6.768125 5.9684375 4.9375 6 C1.28636802 6.50603408 0.51486762 6.97917833 -2.4375 9.5625 C-11.26677899 21.24617604 -16.73256686 34.35267632 -17.4375 48.9375 C-2.66517908 38.33996543 6.0401583 17.8471255 10.5625 0.9375 C13.52425123 1.55027612 14.94308783 2.19122522 17.5625 3.9375 C18.12617271 10.26316044 16.58784453 16.08317823 15.21875 22.21875 C14.57315061 25.87714653 14.44788826 29.23172049 14.5625 32.9375 C15.2225 32.2775 15.8825 31.6175 16.5625 30.9375 C17.5525 31.2675 18.5425 31.5975 19.5625 31.9375 C19.21316406 32.79472656 18.86382812 33.65195312 18.50390625 34.53515625 C15.09671868 43.00832739 15.09671868 43.00832739 13.5625 51.9375 C10.5625 52.9375 10.5625 52.9375 7.90234375 51.875 C5.5625 49.9375 5.5625 49.9375 5.00390625 47.1875 C5.04386719 46.115 5.08382813 45.0425 5.125 43.9375 C5.16753906 42.78378906 5.21007812 41.63007813 5.25390625 40.44140625 C5.61726701 36.3156518 6.24883275 32.3235328 7.125 28.27734375 C7.68502874 25.67892235 7.68502874 25.67892235 7.5625 21.9375 C7.26859375 22.618125 6.9746875 23.29875 6.671875 24 C3.5697064 30.70353674 -0.08256141 36.53313695 -4.5 42.4375 C-5.25941895 43.46037109 -5.25941895 43.46037109 -6.03417969 44.50390625 C-8.83835508 48.17469408 -11.55453777 51.34002356 -15.4375 53.9375 C-18.60891795 53.9375 -20.10321505 53.15433348 -22.75 51.4375 C-25.74827006 46.99561843 -24.89109865 42.53354228 -24 37.43359375 C-21.64339858 27.55059653 -12.26655011 -0.22302818 0 0 Z " fill="#101010" transform="translate(405.4375,424.0625)"/>
<path d="M0 0 C4.49634383 0.3854009 7.49678533 2.23001631 11 5 C11 5.99 11 6.98 11 8 C9.02 8 7.04 8 5 8 C4.73703125 8.53238281 4.4740625 9.06476563 4.203125 9.61328125 C3.31707147 11.37100432 2.40723229 13.11678658 1.484375 14.85546875 C-3.99299145 25.37842727 -8.66453251 36.32266253 -11 48 C-6.71 48 -2.42 48 2 48 C2 49.98 2 51.96 2 54 C0.33710937 54.00386719 0.33710937 54.00386719 -1.359375 54.0078125 C-2.82295682 54.04534024 -4.28649774 54.08448783 -5.75 54.125 C-6.47960937 54.12242187 -7.20921875 54.11984375 -7.9609375 54.1171875 C-10.42021598 54.14680297 -10.42021598 54.14680297 -14 55 C-21.39827537 64.28054023 -22.63850929 77.27473853 -24.38305664 88.6965332 C-24.68916732 90.69840379 -25.00857674 92.69781461 -25.33007812 94.69726562 C-26.49629165 102.11762106 -27.44870319 109.50804277 -28 117 C-22.67763394 112.4263044 -22.67763394 112.4263044 -17.625 107.5625 C-16 106 -16 106 -14 106 C-14.45673946 110.87797739 -16.89889176 113.93226513 -19.875 117.625 C-20.54595703 118.48351562 -20.54595703 118.48351562 -21.23046875 119.359375 C-23.35410123 122.05306811 -25.49035916 124.65656054 -28 127 C-31.78895325 125.73701558 -34.21586966 123.54005308 -36 120 C-36.27748814 114.96942103 -35.62813722 110.90325483 -34.171875 106.09765625 C-33.98263962 105.46232468 -33.79340424 104.8269931 -33.59843445 104.17240906 C-33.1965384 102.82570223 -32.79058658 101.4801999 -32.38082886 100.13586426 C-31.32195587 96.65563442 -30.29902694 93.16478887 -29.26953125 89.67578125 C-29.06880508 88.99877167 -28.86807892 88.32176208 -28.66127014 87.62423706 C-23.78376967 71.61800662 -23.78376967 71.61800662 -23 55 C-24.98 54.34 -26.96 53.68 -29 53 C-29 51.35 -29 49.7 -29 48 C-28.35933594 47.87367188 -27.71867188 47.74734375 -27.05859375 47.6171875 C-22.70079633 46.38323592 -19.82232969 45.07097878 -17.0234375 41.42578125 C-12.60461382 33.06229989 -9.99337495 24.09026298 -7.48364258 14.99682617 C-5.87197926 9.26760417 -4.3087169 4.3087169 0 0 Z " fill="#111111" transform="translate(659,369)"/>
<path d="M0 0 C1.53202706 0.25195908 3.05257128 0.57596777 4.5625 0.9375 C5.38878906 1.13214844 6.21507812 1.32679688 7.06640625 1.52734375 C7.70449219 1.68332031 8.34257813 1.83929688 9 2 C9.22823248 11.28145408 8.90427108 19.86970027 7 29 C3 29 3 29 1.2409668 27.75073242 C-0.32105255 25.54706515 -0.23295059 24.63065416 0.14453125 21.98828125 C0.24443359 21.23095703 0.34433594 20.47363281 0.44726562 19.69335938 C0.56779297 18.90767578 0.68832031 18.12199219 0.8125 17.3125 C0.97588867 16.11657227 0.97588867 16.11657227 1.14257812 14.89648438 C1.41356399 12.92889137 1.70485208 10.96411387 2 9 C1.34 9 0.68 9 0 9 C-0.38091797 9.99193359 -0.38091797 9.99193359 -0.76953125 11.00390625 C-1.69559157 13.25878964 -2.66277249 15.44911966 -3.69921875 17.65234375 C-10.63129847 32.5045479 -15.84239345 47.96795108 -19.4921875 63.953125 C-20 66 -20 66 -21 68 C-26.875 66.125 -26.875 66.125 -28 65 C-28.7268587 56.78708443 -27.29762716 49.00605808 -25.625 41 C-25.17920585 38.79176385 -24.73388872 36.58343134 -24.2890625 34.375 C-24.07282227 33.31667969 -23.85658203 32.25835937 -23.63378906 31.16796875 C-22.69127856 26.45686846 -21.83782558 21.73069269 -21 17 C-22.32 19.64 -23.64 22.28 -25 25 C-25.99 25 -26.98 25 -28 25 C-27.4462522 19.89545207 -24.97407204 16.03424443 -22.4375 11.6875 C-22.01275391 10.94693359 -21.58800781 10.20636719 -21.15039062 9.44335938 C-20.10648347 7.62531882 -19.05407808 5.81216252 -18 4 C-15.03 4.495 -15.03 4.495 -12 5 C-11.00603536 8.10412765 -11.02431981 10.00674169 -11.92578125 13.125 C-12.14556641 13.91519531 -12.36535156 14.70539063 -12.59179688 15.51953125 C-12.82962891 16.33808594 -13.06746094 17.15664063 -13.3125 18 C-15.40320214 25.27874078 -16.86982736 32.50948924 -18 40 C-17.69819824 39.20940186 -17.39639648 38.41880371 -17.08544922 37.60424805 C-15.93975057 34.61420607 -14.78705809 31.6269747 -13.62988281 28.64135742 C-13.13464233 27.35953026 -12.64203725 26.07668111 -12.15234375 24.79272461 C-4.34904728 4.34904728 -4.34904728 4.34904728 0 0 Z " fill="#0E0E0E" transform="translate(511,412)"/>
<path d="M0 0 C0.66 0.33 1.32 0.66 2 1 C0.69791667 2.39973958 -0.60416667 3.79947917 -1.90625 5.19921875 C-3.21989023 6.99521611 -3.21989023 6.99521611 -2.93359375 9.4296875 C-3.02283784 12.88395886 -4.25769257 13.91402014 -6.5625 16.4375 C-15.44276795 26.98971893 -20.42447241 39.06210799 -20.25 52.875 C-20.24178223 53.67019043 -20.23356445 54.46538086 -20.22509766 55.28466797 C-19.80489247 77.37480952 -8.66893271 98.87213185 6 115 C6.72316406 115.680625 7.44632812 116.36125 8.19140625 117.0625 C10.18026973 118.99298197 11.63496124 120.58801063 13 123 C12.93164062 125.37939453 12.93164062 125.37939453 12.34375 128.0078125 C12.13451904 128.98137695 11.92528809 129.95494141 11.7097168 130.95800781 C11.47551025 131.96186523 11.24130371 132.96572266 11 134 C10.69026245 135.41684082 10.69026245 135.41684082 10.37426758 136.86230469 C9.70958299 139.87213938 9.01465038 142.87369253 8.3125 145.875 C8.05484863 146.98560791 7.79719727 148.09621582 7.53173828 149.24047852 C5.24654663 159.04713329 2.86734362 168.83057671 0.47705078 178.61206055 C-1.45081847 186.55520585 -3.23923191 194.51258029 -4.75830078 202.54467773 C-5.78954386 207.78954386 -5.78954386 207.78954386 -8 210 C-8.11688719 205.3504468 -7.79567838 201.25056879 -6.75 196.72265625 C-6.47494629 195.50562012 -6.19989258 194.28858398 -5.91650391 193.03466797 C-5.76739563 192.38898865 -5.61828735 191.74330933 -5.46466064 191.07806396 C-4.65362096 187.56000756 -3.86958108 184.03596293 -3.0859375 180.51171875 C-2.83497818 179.3849472 -2.83497818 179.3849472 -2.57894897 178.2354126 C-0.4574011 168.64333848 1.45824057 159.00968358 3.375 149.375 C3.63700195 148.0624675 3.63700195 148.0624675 3.90429688 146.72341919 C4.40383894 144.21955297 4.90164021 141.71534964 5.3984375 139.2109375 C5.54606537 138.46846268 5.69369324 137.72598785 5.84579468 136.96101379 C6.23750699 134.97537288 6.61911014 132.98774528 7 131 C7.24814453 129.91477051 7.49628906 128.82954102 7.75195312 127.71142578 C8.23092483 125.0523848 8.23092483 125.0523848 7.06298828 123.07226562 C6.57040527 122.52248047 6.07782227 121.97269531 5.5703125 121.40625 C5.02656982 120.775979 4.48282715 120.14570801 3.92260742 119.49633789 C3.32939697 118.83754639 2.73618652 118.17875488 2.125 117.5 C0.91023272 116.07597641 -0.29935714 114.64752103 -1.50390625 113.21484375 C-2.10219238 112.50440918 -2.70047852 111.79397461 -3.31689453 111.06201172 C-19.55068343 91.17361877 -27.85743381 67.59419272 -26 42 C-25.19652501 37.36791828 -23.87483406 33.30372355 -22 29 C-21.53722656 27.93652344 -21.07445312 26.87304688 -20.59765625 25.77734375 C-16.19704468 16.75017233 -10.01196422 10.03246704 -3 3 C-2.38640625 2.38382812 -1.7728125 1.76765625 -1.140625 1.1328125 C-0.76421875 0.75898437 -0.3878125 0.38515625 0 0 Z " fill="#131313" transform="translate(429,114)"/>
<path d="M0 0 C0.66 0 1.32 0 2 0 C1.66948317 1.3340343 1.33544347 2.66719597 1 4 C0.81791992 4.72388916 0.63583984 5.44777832 0.44824219 6.19360352 C-1.4163438 12.98592405 -4.30012476 18.81840944 -7.75 24.9375 C-8.28786133 25.90461914 -8.82572266 26.87173828 -9.37988281 27.86816406 C-21.4602118 49.44382095 -21.4602118 49.44382095 -29 57 C-29.99 57 -30.98 57 -32 57 C-32.32846323 44.61224382 -27.88754408 34.14454021 -22.6875 23.125 C-22.23785889 22.16271484 -21.78821777 21.20042969 -21.32495117 20.20898438 C-17.83240774 13.03424032 -13.66093142 6.66093142 -8 1 C-5.27130593 1.03287583 -2.7033382 1.56397771 0 2 C0 1.34 0 0.68 0 0 Z " fill="#F4F4F4" transform="translate(556,418)"/>
<path d="M0 0 C0.66 0 1.32 0 2 0 C1.77183594 0.58007812 1.54367187 1.16015625 1.30859375 1.7578125 C1.02113281 2.53898437 0.73367188 3.32015625 0.4375 4.125 C0.14746094 4.89070313 -0.14257812 5.65640625 -0.44140625 6.4453125 C-1.21164566 9.03191411 -1.21164566 9.03191411 -0.28125 11.6875 C0.15934881 16.87677484 -2.42790683 20.44905082 -4.9375 24.875 C-5.41896484 25.75414062 -5.90042969 26.63328125 -6.39648438 27.5390625 C-7.58330953 29.70119941 -8.78457062 31.85385358 -10 34 C-16.26409942 33.28567287 -22.2868672 32.11662109 -28.4375 30.71875 C-35.77916698 29.23753649 -42.89917784 28.82278418 -50.3671875 28.76171875 C-51.35136658 28.75197021 -52.33554565 28.74222168 -53.34954834 28.73217773 C-73.93082345 28.57020016 -93.81189825 28.55956627 -114 33 C-115.82912609 33.36738718 -117.6585542 33.73327387 -119.48828125 34.09765625 C-134.82374274 37.2723034 -151.31271043 40.85313662 -165.66381836 47.1730957 C-168 48 -168 48 -171 47 C-148.84745271 38.36563321 -126.27077522 31.59850166 -102.83300781 27.50390625 C-100.28298606 27.05033465 -97.74879528 26.54756911 -95.2109375 26.03125 C-82.8991175 23.71917113 -70.54659736 23.71250024 -58.0625 23.6875 C-57.1765918 23.68382416 -56.29068359 23.68014832 -55.37792969 23.67636108 C-32.13709025 23.62604109 -32.13709025 23.62604109 -22.06274414 26.56518555 C-19.20976597 27.24063836 -19.20976597 27.24063836 -13 27 C-8.71 18.09 -4.42 9.18 0 0 Z " fill="#202020" transform="translate(596,336)"/>
<path d="M0 0 C1.98 0 3.96 0 6 0 C7.81343685 5.32697076 8.86694693 10.36484494 8 16 C5.84160559 19.62301919 3.84310406 21.40099421 0 23 C-3.32882033 23.53462872 -6.63406522 23.73426831 -10 24 C-10 28.95 -10 33.9 -10 39 C-3.36984588 38.33302307 -3.36984588 38.33302307 1.0625 34.875 C1.72636719 34.25238281 2.39023437 33.62976563 3.07421875 32.98828125 C5.45412933 30.53113219 7.65858526 27.97302711 9.7734375 25.28515625 C10.17820312 24.86105469 10.58296875 24.43695313 11 24 C11.66 24 12.32 24 13 24 C10.48064935 32.06192208 3.91677842 39.38881439 -3 44 C-9.01268589 43.70429414 -11.29372248 42.85313876 -17 40 C-17 34.72 -17 29.44 -17 24 C-17.66 24 -18.32 24 -19 24 C-19 23.34 -19 22.68 -19 22 C-18.01 22 -17.02 22 -16 22 C-15.82984375 21.3709375 -15.6596875 20.741875 -15.484375 20.09375 C-13.85541122 14.34038856 -11.94002877 9.21618008 -9 4 C-6.04335481 2.5216774 -3.25770263 2.93967217 0 3 C0 2.01 0 1.02 0 0 Z " fill="#141414" transform="translate(307,446)"/>
<path d="M0 0 C0.99386719 0.02707031 1.98773438 0.05414063 3.01171875 0.08203125 C4.15060547 0.13423828 4.15060547 0.13423828 5.3125 0.1875 C5.3125 0.8475 5.3125 1.5075 5.3125 2.1875 C4.136875 2.2803125 4.136875 2.2803125 2.9375 2.375 C2.07125 2.643125 1.205 2.91125 0.3125 3.1875 C-1.69313904 7.2924266 -2.887163 11.76958323 -4.25 16.125 C-4.47107422 16.81529297 -4.69214844 17.50558594 -4.91992188 18.21679688 C-6.16625112 22.189236 -7.11126313 26.05024874 -7.6875 30.1875 C-7.01203125 29.9709375 -6.3365625 29.754375 -5.640625 29.53125 C-4.74859375 29.2528125 -3.8565625 28.974375 -2.9375 28.6875 C-2.05578125 28.4090625 -1.1740625 28.130625 -0.265625 27.84375 C2.3125 27.1875 2.3125 27.1875 6.3125 27.1875 C5.9825 28.5075 5.6525 29.8275 5.3125 31.1875 C4.40886719 31.35765625 3.50523437 31.5278125 2.57421875 31.703125 C0.80498047 32.06664062 0.80498047 32.06664062 -1 32.4375 C-2.75763672 32.78554688 -2.75763672 32.78554688 -4.55078125 33.140625 C-7.67291336 33.95035454 -7.67291336 33.95035454 -9.54296875 35.859375 C-12.9786649 42.84802656 -11.80158784 51.55746029 -11.75 59.125 C-11.74548828 60.38119141 -11.74097656 61.63738281 -11.73632812 62.93164062 C-11.72459681 66.01697663 -11.708181 69.10221316 -11.6875 72.1875 C-11.15640625 71.70539063 -10.6253125 71.22328125 -10.078125 70.7265625 C-9.01851563 69.77910156 -9.01851563 69.77910156 -7.9375 68.8125 C-7.24140625 68.18601562 -6.5453125 67.55953125 -5.828125 66.9140625 C-3.84241312 65.31244817 -2.00795907 64.22229932 0.3125 63.1875 C-1.0475646 69.08111328 -4.10002622 74.24138178 -8.6875 78.1875 C-12.36170578 78.84289887 -15.35677459 77.8528627 -18.6875 76.1875 C-19.25790108 63.00489716 -17.51421967 50.2223108 -15.6875 37.1875 C-18.3275 37.1875 -20.9675 37.1875 -23.6875 37.1875 C-23.3575 36.1975 -23.0275 35.2075 -22.6875 34.1875 C-21.43599102 33.5832245 -20.16086664 33.02722918 -18.875 32.5 C-15.0270089 30.24214475 -13.93854853 27.90058386 -12.79785156 23.62451172 C-12.00621778 20.15932201 -11.30704344 16.68743847 -10.6875 13.1875 C-10.33579816 11.24955106 -9.98210911 9.31195982 -9.625 7.375 C-9.51027344 6.62605469 -9.39554687 5.87710937 -9.27734375 5.10546875 C-7.73868535 0.1022815 -4.84033578 -0.17083538 0 0 Z " fill="#111111" transform="translate(376.6875,402.8125)"/>
<path d="M0 0 C0.66 0.66 1.32 1.32 2 2 C1.64824304 9.38689626 -2.37842223 16.10565585 -7.21484375 21.5234375 C-10.7281454 24.42940692 -15.43838632 26 -20 26 C-20.33 27.65 -20.66 29.3 -21 31 C-26.875 29.125 -26.875 29.125 -28 28 C-28.88217139 15.95733479 -28.88217139 15.95733479 -26 11 C-19.1961095 5.10734483 -9.18902607 -0.84821779 0 0 Z " fill="#F6F6F6" transform="translate(264,446)"/>
<path d="M0 0 C1.95008794 5.85026382 -2.33659172 12.654108 -5 18 C-10.09711744 27.13384165 -16.09206843 37.04339855 -24 44 C-24.66 44 -25.32 44 -26 44 C-27.71787635 29.60256015 -20.46181113 16.28241484 -12 5 C-8.72724218 1.20702515 -8.72724218 1.20702515 -5.859375 0.390625 C-5.16328125 0.34421875 -4.4671875 0.2978125 -3.75 0.25 C-2.5125 0.1675 -1.275 0.085 0 0 Z " fill="#F4F4F4" transform="translate(414,429)"/>
<path d="M0 0 C0.33 0 0.66 0 1 0 C2.13519232 8.43857306 1.70206071 15.43259352 -0.25 23.6875 C-3.03472639 36.37907211 -4.66605312 49.08413822 -6 62 C-4.7150333 60.88539587 -3.4314436 59.76920414 -2.1484375 58.65234375 C-1.43349121 58.03093506 -0.71854492 57.40952637 0.01806641 56.76928711 C1.52407618 55.42486079 2.9661517 54.00842325 4.375 52.5625 C6 51 6 51 8 51 C7.54326054 55.87797739 5.10110824 58.93226513 2.125 62.625 C1.45404297 63.48351562 1.45404297 63.48351562 0.76953125 64.359375 C-1.35410123 67.05306811 -3.49035916 69.65656054 -6 72 C-9.78895325 70.73701558 -12.21586966 68.54005308 -14 65 C-14.27748814 59.96942103 -13.62813722 55.90325483 -12.171875 51.09765625 C-11.98268494 50.46232468 -11.79349487 49.8269931 -11.59857178 49.17240906 C-11.19674557 47.82569519 -10.79083896 46.48019287 -10.38110352 45.13586426 C-9.32169391 41.65538607 -8.29638951 38.16482672 -7.265625 34.67578125 C-7.06469238 33.99877167 -6.86375977 33.32176208 -6.65673828 32.62423706 C-3.46337748 21.85045387 -0.47861689 11.29535858 0 0 Z " fill="#0F0F0F" transform="translate(637,424)"/>
<path d="M0 0 C3.40272458 0.89545384 5.76692552 1.81964054 8.5625 3.9375 C8.5625 4.5975 8.5625 5.2575 8.5625 5.9375 C6.768125 5.9684375 6.768125 5.9684375 4.9375 6 C1.28636802 6.50603408 0.51486762 6.97917833 -2.4375 9.5625 C-10.6285955 20.46158063 -17.19689313 34.29082445 -18.4375 47.9375 C-20.0875 48.5975 -21.7375 49.2575 -23.4375 49.9375 C-24.4375 48.9375 -24.4375 48.9375 -24.6875 45.0625 C-24.41686963 29.41514421 -15.56564097 13.21314322 -5.4453125 1.6640625 C-3.4375 -0.0625 -3.4375 -0.0625 0 0 Z " fill="#0E0E0E" transform="translate(405.4375,424.0625)"/>
<path d="M0 0 C0 0.99 0 1.98 0 3 C-0.495 3.433125 -0.99 3.86625 -1.5 4.3125 C-3.24289465 5.95953211 -3.24289465 5.95953211 -3.37109375 8.640625 C-2.87946424 13.09116583 -1.01812698 15.77455413 1.4375 19.4375 C4.64592074 24.23784772 6.92017157 28.01286801 7 34 C5.890625 35.8203125 5.890625 35.8203125 4.25 37.125 C1.48185992 39.51508391 -0.17369855 41.80397246 -2 45 C-5.06533164 46.53266582 -8.26754272 46.10276471 -11.625 46.0625 C-12.33140625 46.05798828 -13.0378125 46.05347656 -13.765625 46.04882812 C-15.51045275 46.03703875 -17.255237 46.01910324 -19 46 C-18.67 45.01 -18.34 44.02 -18 43 C-15.49717854 42.16966608 -13.12373476 41.51218148 -10.5625 40.9375 C-5.31878265 39.91982298 -5.31878265 39.91982298 -1 37 C-0.74055676 29.86531091 -3.76569323 26.00910116 -8.08984375 20.515625 C-10.40097153 17.47193115 -11.79336765 15.30117006 -12.39453125 11.515625 C-11.84807885 8.03131468 -10.36045468 6.98385686 -7.6875 4.75 C-6.88699219 4.06421875 -6.08648437 3.3784375 -5.26171875 2.671875 C-3 1 -3 1 0 0 Z " fill="#0F0F0F" transform="translate(337,440)"/>
<path d="M0 0 C0.33 0 0.66 0 1 0 C0.45963399 9.95128123 -1.52013113 19.57181464 -3.5 29.3125 C-3.67440613 30.17883057 -3.84881226 31.04516113 -4.02850342 31.93774414 C-7.74742741 50.37202577 -12.01950647 68.65992617 -16.49359131 86.92358398 C-17.28296574 90.16023799 -18.05631017 93.40067235 -18.83203125 96.640625 C-19.3662442 98.84397892 -19.90132661 101.04712232 -20.4375 103.25 C-20.78965576 104.72339844 -20.78965576 104.72339844 -21.14892578 106.2265625 C-21.36661621 107.10570312 -21.58430664 107.98484375 -21.80859375 108.890625 C-21.99220459 109.64375977 -22.17581543 110.39689453 -22.36499023 111.17285156 C-23 113 -23 113 -25 115 C-24.38847532 106.92137606 -23.00061801 99.06847226 -21.4375 91.125 C-21.3075061 90.46138458 -21.17751221 89.79776917 -21.0435791 89.11404419 C-15.1514495 59.10892794 -8.00224452 29.50951157 0 0 Z " fill="#131313" transform="translate(470,247)"/>
<path d="M0 0 C0.33 0 0.66 0 1 0 C0.50979922 10.44768347 -1.77701336 20.55076037 -3.9375 30.75 C-4.13197723 31.67777252 -4.32645447 32.60554504 -4.52682495 33.56143188 C-8.72556711 53.53626899 -13.72623699 73.285262 -19 93 C-19.33 93 -19.66 93 -20 93 C-19.44165467 84.92616528 -18.20851841 77.11923063 -16.625 69.1875 C-16.41617187 68.11435547 -16.20734375 67.04121094 -15.9921875 65.93554688 C-13.35734801 52.49625885 -10.37612237 39.17270135 -7.03833008 25.89257812 C-6.43150666 23.47613381 -5.82980623 21.05845131 -5.22851562 18.640625 C-4.83884386 17.08325769 -4.44888063 15.52596327 -4.05859375 13.96875 C-3.88146347 13.25618042 -3.70433319 12.54361084 -3.52183533 11.80944824 C-2.51202805 7.80758954 -1.35740412 3.89764009 0 0 Z " fill="#171717" transform="translate(497,256)"/>
<path d="M0 0 C1.32 0.99 2.64 1.98 4 3 C2.6742605 10.68645834 1.08912543 18.28090147 -0.6875 25.875 C-0.94515137 26.98560791 -1.20280273 28.09621582 -1.46826172 29.24047852 C-3.75345337 39.04713329 -6.13265638 48.83057671 -8.52294922 58.61206055 C-10.45081847 66.55520585 -12.23923191 74.51258029 -13.75830078 82.54467773 C-14.78954386 87.78954386 -14.78954386 87.78954386 -17 90 C-17.11688719 85.3504468 -16.79567838 81.25056879 -15.75 76.72265625 C-15.33741943 74.89710205 -15.33741943 74.89710205 -14.91650391 73.03466797 C-14.76739563 72.38898865 -14.61828735 71.74330933 -14.46466064 71.07806396 C-13.65362096 67.56000756 -12.86958108 64.03596293 -12.0859375 60.51171875 C-11.91863129 59.76053772 -11.75132507 59.00935669 -11.57894897 58.2354126 C-9.4574011 48.64333848 -7.54175943 39.00968358 -5.625 29.375 C-5.45033203 28.49997833 -5.27566406 27.62495667 -5.09570312 26.72341919 C-4.59616106 24.21955297 -4.09835979 21.71534964 -3.6015625 19.2109375 C-3.45393463 18.46846268 -3.30630676 17.72598785 -3.15420532 16.96101379 C-1.54828983 9.03713394 -1.54828983 9.03713394 -1 1 C-0.67 0.67 -0.34 0.34 0 0 Z " fill="#252525" transform="translate(438,234)"/>
<path d="M0 0 C0.33 0 0.66 0 1 0 C0.4972636 9.522684 -1.15429456 18.6929632 -3.125 28 C-3.27762299 28.73157318 -3.43024597 29.46314636 -3.5874939 30.21688843 C-11.56878589 68.44591377 -11.56878589 68.44591377 -16 79 C-16.33 79 -16.66 79 -17 79 C-16.42155846 70.53921332 -15.11642186 62.32046577 -13.5 54 C-13.37460846 53.34923492 -13.24921692 52.69846985 -13.12002563 52.02798462 C-10.87830966 40.47825508 -8.13573623 29.07562304 -5.1875 17.6875 C-4.88682617 16.52553101 -4.88682617 16.52553101 -4.58007812 15.34008789 C-1.23290094 2.46580189 -1.23290094 2.46580189 0 0 Z " fill="#1F1F1F" transform="translate(525,260)"/>
<path d="M0 0 C0.928125 0.825 1.85625 1.65 2.8125 2.5 C10.49364089 9.0506504 18.55838589 15.24194544 28 19 C28.95664551 19.39384888 28.95664551 19.39384888 29.93261719 19.7956543 C38.16788574 22.75787447 46.51215085 22.33468863 55.125 22.1875 C56.66925773 22.17242062 58.21352976 22.15873799 59.7578125 22.14648438 C63.50551015 22.11374857 67.25266109 22.06214757 71 22 C61.7547552 28.16349653 47.84861214 28.25877918 37.23828125 26.30859375 C21.88352987 22.59799155 9.39846045 14.93106044 0 2 C0 1.34 0 0.68 0 0 Z " fill="#3A3A3A" transform="translate(516,228)"/>
<path d="M0 0 C1.32 0.33 2.64 0.66 4 1 C3.01 1 2.02 1 1 1 C1 1.928125 1 2.85625 1 3.8125 C1 5.875 1 7.9375 1 10 C-1.0546875 11.81640625 -1.0546875 11.81640625 -4 14 C-6.39945584 15.95016927 -8.76115801 17.94440796 -11.125 19.9375 C-11.74503906 20.44990234 -12.36507812 20.96230469 -13.00390625 21.49023438 C-16.39529692 24.36015315 -19.06879776 26.90329525 -21 31 C-20.83990409 33.72163054 -20.25246835 34.71723545 -18.4375 36.75 C-17.7259375 37.36875 -17.7259375 37.36875 -17 38 C-22.26053037 38.31563182 -25.44573816 37.66590937 -30 35 C-29.57815258 30.07844679 -27.61671555 28.23195858 -24 25 C-23.443125 24.48695313 -22.88625 23.97390625 -22.3125 23.4453125 C-17.34351674 18.95252347 -12.03551416 14.96967234 -6.63671875 11.015625 C-2.1840415 7.76700023 -2.1840415 7.76700023 -0.3125 2.8125 C-0.209375 1.884375 -0.10625 0.95625 0 0 Z " fill="#121212" transform="translate(232,451)"/>
<path d="M0 0 C-0.66 0.33 -1.32 0.66 -2 1 C-2 1.66 -2 2.32 -2 3 C-2.85416504 3.12528076 -3.70833008 3.25056152 -4.58837891 3.37963867 C-46.04710206 9.23325438 -46.04710206 9.23325438 -85.66381836 22.1730957 C-88 23 -88 23 -91 22 C-67.90058584 12.99657426 -44.42493459 6.27715841 -20 2 C-18.40599365 1.71745361 -18.40599365 1.71745361 -16.77978516 1.42919922 C-15.19302979 1.15487061 -15.19302979 1.15487061 -13.57421875 0.875 C-12.61990967 0.71 -11.66560059 0.545 -10.68237305 0.375 C-7.07117085 -0.12985179 -3.63958024 -0.13998386 0 0 Z " fill="#2A2A2A" transform="translate(516,361)"/>
<path d="M0 0 C0.99 0.33 1.98 0.66 3 1 C1.5719036 11.06898345 -7.50512932 22.26945344 -15.078125 28.7890625 C-17 30 -17 30 -19.5625 29.875 C-22.1127402 28.95952916 -23.2924841 28.06699293 -25 26 C-24.360625 25.814375 -23.72125 25.62875 -23.0625 25.4375 C-20.57873787 24.05753944 -20.57873787 24.05753944 -20.25 20.375 C-20.1675 19.26125 -20.085 18.1475 -20 17 C-19.67 17 -19.34 17 -19 17 C-19 19.64 -19 22.28 -19 25 C-10.61771995 18.98662518 -4.29300083 9.34498523 0 0 Z " fill="#161616" transform="translate(407,448)"/>
<path d="M0 0 C1.125 1.625 1.125 1.625 2 4 C-0.70977737 15.78022975 -9.62350835 26.67693417 -17 36 C-18.65 35.67 -20.3 35.34 -22 35 C-18.97676057 30.41530724 -15.91601382 25.88047813 -12.6875 21.4375 C-7.88240251 14.63925669 -3.99068498 7.29363286 0 0 Z " fill="#171717" transform="translate(549,440)"/>
<path d="M0 0 C0.33 0 0.66 0 1 0 C1.08636719 0.95519531 1.17273438 1.91039062 1.26171875 2.89453125 C2.19793066 11.50939864 3.8486378 18.28867077 8 26 C8.63035156 27.30130859 8.63035156 27.30130859 9.2734375 28.62890625 C13.44339184 36.90855548 19.1492734 43.8687763 25 51 C20.93532932 51 20.15452205 49.58756048 17.3125 46.75 C6.95299306 35.98275736 -1.17180875 23.13157747 -1.375 7.75 C-1.25941194 4.81584156 -0.93747006 2.81241018 0 0 Z " fill="#1B1B1B" transform="translate(427,172)"/>
<path d="M0 0 C0.33 0 0.66 0 1 0 C2.1850291 8.64907323 1.64113215 15.89915074 -0.3125 24.375 C-0.78413869 26.55797164 -1.25290802 28.74156526 -1.71875 30.92578125 C-2.05519531 32.48546631 -2.05519531 32.48546631 -2.3984375 34.07666016 C-3.55095908 39.67742859 -4.31963327 45.3235074 -5 51 C-5.928125 50.4740625 -5.928125 50.4740625 -6.875 49.9375 C-7.57625 49.628125 -8.2775 49.31875 -9 49 C-9.99 49.495 -9.99 49.495 -11 50 C-9.69184125 42.59996532 -7.72112732 35.54658144 -5.5 28.375 C-2.63975001 18.91163769 -0.71091328 9.86573527 0 0 Z " fill="#171717" transform="translate(637,424)"/>
<path d="M0 0 C0.33 0 0.66 0 1 0 C0.51398014 10.74713365 -1.902773 21.18349958 -4.0625 31.6875 C-4.44389849 33.56434365 -4.82476237 35.44129602 -5.20507812 37.31835938 C-6.13055721 41.88018364 -7.063268 46.44047372 -8 51 C-8.66 50.34 -9.32 49.68 -10 49 C-10.66 49.66 -11.32 50.32 -12 51 C-11.35230248 44.90319506 -10.20074825 39.07851091 -8.75 33.125 C-8.42273926 31.76483765 -8.42273926 31.76483765 -8.08886719 30.37719727 C-6.22769347 22.7348026 -4.1689022 15.15450744 -2.015625 7.58984375 C-1.30105577 5.06411637 -0.62625699 2.54740888 0 0 Z " fill="#323232" transform="translate(470,247)"/>
<path d="M0 0 C0.66 0.66 1.32 1.32 2 2 C1.16698364 2.2019397 1.16698364 2.2019397 0.31713867 2.40795898 C-13.12869895 5.70408423 -26.24216578 9.57990914 -39.30004883 14.19116211 C-40.39212646 14.57022705 -41.4842041 14.94929199 -42.609375 15.33984375 C-43.57842773 15.68394287 -44.54748047 16.02804199 -45.54589844 16.38256836 C-48 17 -48 17 -51 16 C-23.91007391 5.08007499 -23.91007391 5.08007499 -12 1.25 C-11.2371167 0.99847168 -10.4742334 0.74694336 -9.68823242 0.48779297 C-6.05319457 -0.64025025 -3.60863303 -1.28376935 0 0 Z " fill="#383838" transform="translate(240,533)"/>
<path d="M0 0 C0.33 0 0.66 0 1 0 C1.90325381 9.39383967 -1.85020978 17.45471415 -7.375 24.9375 C-12.42735333 30.97407801 -17.32917756 34.27797864 -25 36 C-22.1416903 33.05236813 -19.23291312 30.3605705 -16.0625 27.75 C-7.60208089 20.3550848 -3.49633917 10.48901752 0 0 Z " fill="#1C1C1C" transform="translate(666,237)"/>
<path d="M0 0 C0.99 0.33 1.98 0.66 3 1 C4.74098435 9.87729644 4.74098435 9.87729644 1.9375 14.125 C-1.39295807 16.2508243 -3.12571684 16.45049804 -7 16 C-6.71601983 9.32646591 -3.92194468 5.28922815 0 0 Z " fill="#EAEAEA" transform="translate(305,451)"/>
<path d="M0 0 C-0.99 0.66 -1.98 1.32 -3 2 C-3.99 3.485 -3.99 3.485 -5 5 C-7.16723633 5.79956055 -7.16723633 5.79956055 -9.83203125 6.38671875 C-10.79560547 6.60263672 -11.75917969 6.81855469 -12.75195312 7.04101562 C-13.76193359 7.25435547 -14.77191406 7.46769531 -15.8125 7.6875 C-17.31006836 8.02491211 -17.31006836 8.02491211 -18.83789062 8.36914062 C-23.31920426 9.35138725 -27.39455807 10.13090403 -32 10 C-31.67 9.01 -31.34 8.02 -31 7 C-28.5253322 6.01254132 -26.17727166 5.22219921 -23.625 4.5 C-22.5426709 4.18071533 -22.5426709 4.18071533 -21.43847656 3.85498047 C-19.97984741 3.42724995 -18.51955114 3.00516219 -17.05761719 2.58886719 C-15.24398383 2.06982546 -13.43772676 1.52515593 -11.6328125 0.9765625 C-3.90268546 -1.30686256 -3.90268546 -1.30686256 0 0 Z " fill="#1C1C1C" transform="translate(271,524)"/>
<path d="M0 0 C0.928125 0.825 1.85625 1.65 2.8125 2.5 C12.19062627 10.49787785 22.03584524 17.53669204 34 21 C33.505 22.485 33.505 22.485 33 24 C21.08742022 23.47055201 11.96701175 15.14778673 4 7 C0 2.36593592 0 2.36593592 0 0 Z " fill="#151515" transform="translate(516,228)"/>
<path d="M0 0 C-2.33333333 2.33333333 -4.66666667 4.66666667 -7 7 C-7.62448329 9.549496 -8.15890349 12.04720094 -8.625 14.625 C-8.7590625 15.33140625 -8.893125 16.0378125 -9.03125 16.765625 C-9.36110025 18.50911918 -9.68146056 20.25440389 -10 22 C-10.66 22 -11.32 22 -12 22 C-12 18.04 -12 14.08 -12 10 C-12.66 9.67 -13.32 9.34 -14 9 C-13.34 6.36 -12.68 3.72 -12 1 C-10.56496445 0.63597631 -9.12683494 0.28413409 -7.6875 -0.0625 C-6.88699219 -0.25972656 -6.08648437 -0.45695312 -5.26171875 -0.66015625 C-3 -1 -3 -1 0 0 Z " fill="#121212" transform="translate(245,451)"/>
<path d="M0 0 C2.96201297 4.44301946 1.85596716 7.87737843 1 13 C-0.02959297 17.9051695 -1.21965813 22.76355383 -2.4375 27.625 C-2.90639648 29.53152344 -2.90639648 29.53152344 -3.38476562 31.4765625 C-4.24937886 34.9861976 -5.12258832 38.4935458 -6 42 C-6.22059082 42.88397461 -6.44118164 43.76794922 -6.66845703 44.67871094 C-7.11137079 46.45270738 -7.5554842 48.2264043 -8 50 C-8.33 50 -8.66 50 -9 50 C-9.15049096 44.98309821 -8.65059809 40.59234933 -7.5390625 35.703125 C-7.38843353 35.0288446 -7.23780457 34.35456421 -7.08261108 33.65985107 C-6.6037123 31.52159131 -6.11489004 29.38576566 -5.625 27.25 C-4.98889878 24.4434443 -4.35695052 21.635969 -3.7265625 18.828125 C-3.57479553 18.15487183 -3.42302856 17.48161865 -3.2666626 16.78796387 C-2.02191211 11.21771824 -0.95085703 5.6272767 0 0 Z " fill="#393939" transform="translate(430,274)"/>
<path d="M0 0 C0.99 0 1.98 0 3 0 C-1.2 9.1 -1.2 9.1 -5 11 C-7.55157655 11.0716735 -10.07472971 11.09308442 -12.625 11.0625 C-13.33140625 11.05798828 -14.0378125 11.05347656 -14.765625 11.04882812 C-16.51045275 11.03703875 -18.255237 11.01910324 -20 11 C-19.67 10.01 -19.34 9.02 -19 8 C-16.53763775 7.16535128 -14.21065425 6.51105143 -11.6875 5.9375 C-5.63642336 4.54665585 -5.63642336 4.54665585 0 2 C0 1.34 0 0.68 0 0 Z " fill="#222222" transform="translate(338,475)"/>
<path d="M0 0 C0.99 0 1.98 0 3 0 C4.80072343 5.28962508 5.92924886 10.40289641 5 16 C3 18.5625 3 18.5625 1 20 C-1.2054478 16.69182831 -1.41949149 15.02305628 -1.75 11.125 C-1.84796875 10.09632813 -1.9459375 9.06765625 -2.046875 8.0078125 C-1.99764776 4.84906459 -1.35619972 2.82715481 0 0 Z " fill="#0C0C0C" transform="translate(310,446)"/>
<path d="M0 0 C0.33 0 0.66 0 1 0 C0.45548361 8.22147429 -0.87711805 16.12882497 -2.5625 24.1875 C-2.79646484 25.33025391 -3.03042969 26.47300781 -3.27148438 27.65039062 C-3.84233371 30.43473738 -4.41858235 33.21784449 -5 36 C-5.66 35.67 -6.32 35.34 -7 35 C-7.66 35.66 -8.32 36.32 -9 37 C-8.34795335 29.65541894 -6.46336383 22.78005326 -4.5 15.6875 C-4.17902344 14.50865234 -3.85804688 13.32980469 -3.52734375 12.11523438 C-1.20076885 3.60230655 -1.20076885 3.60230655 0 0 Z " fill="#252525" transform="translate(497,256)"/>
<path d="M0 0 C1.7315332 0.00290039 1.7315332 0.00290039 3.49804688 0.00585938 C4.70396484 0.01810547 5.90988281 0.03035156 7.15234375 0.04296875 C8.36212891 0.04361328 9.57191406 0.04425781 10.81835938 0.04492188 C19.80921134 0.09015254 19.80921134 0.09015254 22.08984375 1.23046875 C22.08984375 1.89046875 22.08984375 2.55046875 22.08984375 3.23046875 C6.74484375 3.72546875 6.74484375 3.72546875 -8.91015625 4.23046875 C-8.91015625 3.57046875 -8.91015625 2.91046875 -8.91015625 2.23046875 C-5.44019102 -0.0828414 -4.09010031 -0.01584227 0 0 Z " fill="#121212" transform="translate(522.91015625,359.76953125)"/>
<path d="M0 0 C0.598125 0.226875 1.19625 0.45375 1.8125 0.6875 C1.92065225 2.45699095 1.99816083 4.22837487 2.0625 6 C2.10890625 6.98613281 2.1553125 7.97226562 2.203125 8.98828125 C1.8125 11.6875 1.8125 11.6875 -0.015625 13.54296875 C-2.1875 14.6875 -2.1875 14.6875 -5.1875 14.6875 C-5.26857583 12.75068839 -5.32672475 10.8129066 -5.375 8.875 C-5.40980469 7.79605469 -5.44460938 6.71710938 -5.48046875 5.60546875 C-5.1875 2.6875 -5.1875 2.6875 -3.92578125 0.73828125 C-2.1875 -0.3125 -2.1875 -0.3125 0 0 Z " fill="#1A1A1A" transform="translate(346.1875,436.3125)"/>
<path d="M0 0 C0 0.33 0 0.66 0 1 C-0.98613281 1.1959375 -1.97226562 1.391875 -2.98828125 1.59375 C-12.90591063 3.64485566 -22.60456187 6.2396847 -32.3125 9.125 C-33.48659424 9.47369141 -34.66068848 9.82238281 -35.87036133 10.18164062 C-41.85780325 11.93871634 -41.85780325 11.93871634 -47.67260742 14.17529297 C-50 15 -50 15 -53 14 C-42.05027321 9.73214059 -30.99199447 5.9288045 -19.75 2.5 C-18.59653076 2.13777344 -17.44306152 1.77554687 -16.25463867 1.40234375 C-10.4136676 -0.34340103 -5.96206002 -1.58528764 0 0 Z " fill="#5B5B5B" transform="translate(478,369)"/>
<path d="M0 0 C1.72265625 1.5390625 1.72265625 1.5390625 3 3 C1.7625 3.391875 0.525 3.78375 -0.75 4.1875 C-6.63207922 6.13881177 -12.30598782 8.56246179 -18 11 C-18 7 -18 7 -16.09375 5.078125 C-10.48903432 1.12781334 -6.91158115 -1.2125581 0 0 Z " fill="#191919" transform="translate(262,442)"/>
<path d="M0 0 C1.32 0.33 2.64 0.66 4 1 C3.01 1 2.02 1 1 1 C1 1.928125 1 2.85625 1 3.8125 C1 5.875 1 7.9375 1 10 C-0.60628069 11.40549561 -2.2925002 12.71937515 -4 14 C-5.44598276 15.24017745 -6.88311949 16.49072338 -8.3125 17.75 C-9.35857422 18.67039062 -9.35857422 18.67039062 -10.42578125 19.609375 C-10.94527344 20.06828125 -11.46476563 20.5271875 -12 21 C-12.33 20.34 -12.66 19.68 -13 19 C-14.1446875 20.0209375 -14.1446875 20.0209375 -15.3125 21.0625 C-16.199375 21.701875 -17.08625 22.34125 -18 23 C-18.99 22.67 -19.98 22.34 -21 22 C-20.50072998 21.62190186 -20.00145996 21.24380371 -19.48706055 20.85424805 C-17.21874246 19.13435512 -14.95310187 17.41096917 -12.6875 15.6875 C-11.50897461 14.79514648 -11.50897461 14.79514648 -10.30664062 13.88476562 C-9.54931641 13.30791016 -8.79199219 12.73105469 -8.01171875 12.13671875 C-6.96697388 11.34334106 -6.96697388 11.34334106 -5.90112305 10.53393555 C-1.75527449 7.1888262 -0.60477494 5.44297443 0 0 Z " fill="#212121" transform="translate(232,451)"/>
<path d="M0 0 C0.33 0 0.66 0 1 0 C0.55717468 10.89350292 -1.72999503 21.36773209 -4 32 C-4.33 30.68 -4.66 29.36 -5 28 C-5.66 28 -6.32 28 -7 28 C-6.40265181 25.01932349 -5.79731793 22.04062901 -5.1875 19.0625 C-5.02185547 18.23169922 -4.85621094 17.40089844 -4.68554688 16.54492188 C-3.51510968 10.86940565 -1.95657961 5.4541821 0 0 Z " fill="#313131" transform="translate(525,260)"/>
<path d="M0 0 C3.44605496 6.89210992 -1.8305646 19.91317768 -4 27 C-4.66 27 -5.32 27 -6 27 C-6.45403756 21.43803994 -5.56694977 16.61834001 -4.125 11.25 C-3.86444824 10.2753479 -3.86444824 10.2753479 -3.59863281 9.28100586 C-2.6824956 6.00297885 -1.66699022 2.97355012 0 0 Z " fill="#1D1D1D" transform="translate(437,250)"/>
<path d="M0 0 C0.33 0 0.66 0 1 0 C1 2.64 1 5.28 1 8 C2.98 6.68 4.96 5.36 7 4 C7 4.66 7 5.32 7 6 C7.99 6.33 8.98 6.66 10 7 C3.98779748 12.97755006 3.98779748 12.97755006 0.25 13.0625 C-2.04115599 11.98056523 -3.39389556 10.94423169 -5 9 C-4.0409375 8.7215625 -4.0409375 8.7215625 -3.0625 8.4375 C-0.57873787 7.05753944 -0.57873787 7.05753944 -0.25 3.375 C-0.1675 2.26125 -0.085 1.1475 0 0 Z " fill="#282828" transform="translate(387,465)"/>
<path d="M0 0 C0.33 0 0.66 0 1 0 C3.07595427 11.10184242 0.51907023 21.17875505 -2 32 C-2.99 32 -3.98 32 -5 32 C-6.27314575 29.4537085 -5.82174526 28.72309346 -5.0390625 26.03515625 C-4.81500732 25.23956299 -4.59095215 24.44396973 -4.36010742 23.62426758 C-4.11752197 22.77888428 -3.87493652 21.93350098 -3.625 21.0625 C-1.68081146 14.04185591 -0.18098887 7.32182267 0 0 Z " fill="#343434" transform="translate(637,424)"/>
<path d="M0 0 C0.66 0 1.32 0 2 0 C3.1276294 5.11770267 3.1276294 5.11770267 3 8 C0.8125 11.0625 0.8125 11.0625 -2 13 C-4.3125 12.8125 -4.3125 12.8125 -6 12 C-4.43358249 7.69235185 -2.31663844 3.93828536 0 0 Z " fill="#181818" transform="translate(612,307)"/>
<path d="M0 0 C-0.34013015 5.44208234 -3.70296528 8.93668198 -7 13 C-7.66 12.01 -8.32 11.02 -9 10 C-9.99 10 -10.98 10 -12 10 C-10.38113585 8.32737283 -8.7547271 6.66204463 -7.125 5 C-6.22007812 4.071875 -5.31515625 3.14375 -4.3828125 2.1875 C-2 0 -2 0 0 0 Z " fill="#2C2C2C" transform="translate(645,475)"/>
<path d="M0 0 C0.66 0 1.32 0 2 0 C0.54694849 4.11697928 -1.32645794 7.54012204 -4 11 C-5.875 11.625 -5.875 11.625 -8 12 C-10.02951535 13.28796166 -12.03501678 14.61558 -14 16 C-12.68807497 12.45780243 -10.58139215 10.73172913 -7.65625 8.4375 C-5.22611659 6.3283276 -3.29200393 3.87083291 -1.296875 1.35546875 C-0.65492188 0.68451172 -0.65492188 0.68451172 0 0 Z " fill="#1C1C1C" transform="translate(318,470)"/>
<path d="M0 0 C1.09515342 3.32332333 0.8815395 5.53213886 0.07421875 8.9140625 C-0.14556641 9.83960938 -0.36535156 10.76515625 -0.59179688 11.71875 C-0.82962891 12.6778125 -1.06746094 13.636875 -1.3125 14.625 C-1.53873047 15.59179688 -1.76496094 16.55859375 -1.99804688 17.5546875 C-3.73891849 24.73891849 -3.73891849 24.73891849 -6 27 C-4.38186813 7.36950549 -4.38186813 7.36950549 0 0 Z " fill="#434343" transform="translate(451,335)"/>
<path d="M0 0 C0.33 0 0.66 0 1 0 C1.19392201 5.52677733 0.7479503 9.75614911 -1 15 C-1.33 14.34 -1.66 13.68 -2 13 C-2.66 13 -3.32 13 -4 13 C-5.01683263 9.76462345 -5.23436771 8.46873543 -3.6875 5.375 C-3.130625 4.59125 -2.57375 3.8075 -2 3 C-1.34 2.01 -0.68 1.02 0 0 Z " fill="#1B1B1B" transform="translate(234,481)"/>
<path d="M0 0 C0.99 0.66 1.98 1.32 3 2 C2.40895235 6.84659077 1.02055843 10.60748167 -1 15 C-1.99 14.34 -2.98 13.68 -4 13 C-3.40895235 8.15340923 -2.02055843 4.39251833 0 0 Z " fill="#141414" transform="translate(503,427)"/>
<path d="M0 0 C0.66 0.66 1.32 1.32 2 2 C1.50275108 5.8695007 -0.23438267 9.58930685 -1.5625 13.25 C-1.79646484 13.8996875 -2.03042969 14.549375 -2.27148438 15.21875 C-2.84592787 16.81312378 -3.4227293 18.40664767 -4 20 C-4.33 20 -4.66 20 -5 20 C-3.70473538 6.61559889 -3.70473538 6.61559889 -2 1 C-1.34 0.67 -0.68 0.34 0 0 Z " fill="#D0D0D0" transform="translate(497,435)"/>
<path d="M0 0 C0.33 1.32 0.66 2.64 1 4 C1.66 4 2.32 4 3 4 C2.38221953 6.60607392 1.75612789 9.20965697 1.125 11.8125 C0.95097656 12.55048828 0.77695312 13.28847656 0.59765625 14.04882812 C-0.24492511 17.49717037 -1.01285575 20.01928362 -3 23 C-2.41993763 15.24548194 -1.37559416 7.65257723 0 0 Z " fill="#313131" transform="translate(511,316)"/>
<path d="M0 0 C6.97630332 4.2464455 6.97630332 4.2464455 8 8 C7.625 10.75 7.625 10.75 7 13 C6.34 13 5.68 13 5 13 C4.15930585 11.39967863 3.32768495 9.79458829 2.5 8.1875 C1.80390625 6.84751953 1.80390625 6.84751953 1.09375 5.48046875 C0 3 0 3 0 0 Z " fill="#0C0C0C" transform="translate(410,196)"/>
<path d="M0 0 C0.99 0.33 1.98 0.66 3 1 C3.10251672 6.12583611 3.03590199 10.94997778 2 16 C1.34 16 0.68 16 0 16 C0 12.04 0 8.08 0 4 C-0.66 3.67 -1.32 3.34 -2 3 C-1.34 2.01 -0.68 1.02 0 0 Z " fill="#030303" transform="translate(233,457)"/>
<path d="M0 0 C-1.5676572 3.84788585 -3.79329096 6.37632897 -7 9 C-10.3125 9.3125 -10.3125 9.3125 -13 9 C-12.25 7.0625 -12.25 7.0625 -11 5 C-9.67511887 4.63451555 -8.33981486 4.3062434 -7 4 C-1.90909091 0 -1.90909091 0 0 0 Z " fill="#0D0D0D" transform="translate(313,480)"/>
<path d="M0 0 C0.99 0.33 1.98 0.66 3 1 C1.77048326 8.47835477 0.11170763 15.7216477 -2 23 C-2.33 23 -2.66 23 -3 23 C-2.41993763 15.24548194 -1.37559416 7.65257723 0 0 Z " fill="#323232" transform="translate(480,326)"/>
<path d="M0 0 C3.14947449 2.3833861 5.9972676 4.55084975 8 8 C7.67 8.99 7.34 9.98 7 11 C3.20764006 9.51014431 1.19434113 7.41341953 -1 4 C-0.75 1.6875 -0.75 1.6875 0 0 Z " fill="#141414" transform="translate(430,225)"/>
<path d="M0 0 C0.66 0.33 1.32 0.66 2 1 C1.175 1.886875 0.35 2.77375 -0.5 3.6875 C-2.96049255 6.59473003 -3.21254881 8.17412136 -3 12 C-3.99 12.66 -4.98 13.32 -6 14 C-6.33 13.34 -6.66 12.68 -7 12 C-8.32 11.67 -9.64 11.34 -11 11 C-7.37 7.37 -3.74 3.74 0 0 Z " fill="#1B1B1B" transform="translate(429,114)"/>
<path d="M0 0 C0.33 1.32 0.66 2.64 1 4 C1.66 4 2.32 4 3 4 C2.71905418 5.8141927 2.42493567 7.62635001 2.125 9.4375 C1.96257812 10.44683594 1.80015625 11.45617187 1.6328125 12.49609375 C1.42398437 13.32238281 1.21515625 14.14867187 1 15 C0.01 15.495 0.01 15.495 -1 16 C-1.66 16.99 -2.32 17.98 -3 19 C-2.27637073 12.60794144 -1.19656638 6.31972924 0 0 Z " fill="#2B2B2B" transform="translate(452,321)"/>
<path d="M0 0 C-1.27721526 4.99275057 -3.17330957 7.57611908 -7 11 C-7.99 10.01 -8.98 9.02 -10 8 C-8.71451591 6.66070495 -7.42141845 5.32871357 -6.125 4 C-5.04605469 2.88625 -5.04605469 2.88625 -3.9453125 1.75 C-2 0 -2 0 0 0 Z " fill="#212121" transform="translate(377,466)"/>
<path d="M0 0 C0.33 0 0.66 0 1 0 C0.979375 0.928125 0.95875 1.85625 0.9375 2.8125 C0.84230396 6.02286011 0.84230396 6.02286011 2 9 C-1.3146667 11.02907167 -3.4315979 11.12742133 -7.25 10.625 C-8.14203125 10.51414062 -9.0340625 10.40328125 -9.953125 10.2890625 C-10.62859375 10.19367188 -11.3040625 10.09828125 -12 10 C-11.67 9.01 -11.34 8.02 -11 7 C-11 7.66 -11 8.32 -11 9 C-6.85776486 8.4021337 -6.85776486 8.4021337 -3 7 C-1.36501213 4.69397477 -0.81717296 2.75795874 0 0 Z " fill="#2A2A2A" transform="translate(309,458)"/>
<path d="M0 0 C0.33 0 0.66 0 1 0 C0.49451662 8.54092606 -1.06734291 16.67377292 -3 25 C-5 22 -5 22 -4.87573242 20.07055664 C-4.70404541 19.35762451 -4.5323584 18.64469238 -4.35546875 17.91015625 C-4.17306641 17.12576172 -3.99066406 16.34136719 -3.80273438 15.53320312 C-3.59970703 14.71787109 -3.39667969 13.90253906 -3.1875 13.0625 C-2.99607422 12.25103516 -2.80464844 11.43957031 -2.60742188 10.60351562 C-1.76771238 7.06162679 -0.88435455 3.53096308 0 0 Z " fill="#404040" transform="translate(470,247)"/>
<path d="M0 0 C2 4 2 4 1.3125 7.0625 C0.11838896 9.73503424 -0.76905723 11.17468319 -3 13 C-3 12.01 -3 11.02 -3 10 C-3.66 9.67 -4.32 9.34 -5 9 C-3.35 6.03 -1.7 3.06 0 0 Z " fill="#1E1E1E" transform="translate(549,440)"/>
<path d="M0 0 C0 0.66 0 1.32 0 2 C-6.06815522 3.22899346 -11.79895188 4.27560214 -18 4 C-15.48115349 1.48115349 -13.56355758 1.1742412 -10.125 0.3125 C-9.07570313 0.04050781 -8.02640625 -0.23148437 -6.9453125 -0.51171875 C-4.14833162 -0.97540921 -2.627808 -0.94575698 0 0 Z " fill="#303030" transform="translate(493,365)"/>
<path d="M0 0 C0 0.66 0 1.32 0 2 C-0.66 2 -1.32 2 -2 2 C-1.67 3.32 -1.34 4.64 -1 6 C-3.97 8.475 -3.97 8.475 -7 11 C-7.67578125 9.234375 -7.67578125 9.234375 -8 7 C-6.85546875 5.078125 -6.85546875 5.078125 -5.1875 3.25 C-4.64480469 2.63640625 -4.10210937 2.0228125 -3.54296875 1.390625 C-2 0 -2 0 0 0 Z " fill="#060606" transform="translate(433,114)"/>
<path d="M0 0 C0.99 0.33 1.98 0.66 3 1 C2.46930939 4.82097239 1.50298434 7.06171403 -1 10 C-1.33 9.34 -1.66 8.68 -2 8 C-2.99 9.485 -2.99 9.485 -4 11 C-4.66 10.67 -5.32 10.34 -6 10 C-4.02 6.7 -2.04 3.4 0 0 Z " fill="#232323" transform="translate(407,448)"/>
<path d="M0 0 C0.33 0 0.66 0 1 0 C1.66 5.61 2.32 11.22 3 17 C2.01 17.33 1.02 17.66 0 18 C-0.96604701 14.75684218 -1.13419024 11.81491334 -1.125 8.4375 C-1.12757813 7.48746094 -1.13015625 6.53742188 -1.1328125 5.55859375 C-1 3 -1 3 0 0 Z " fill="#313131" transform="translate(427,172)"/>
<path d="M0 0 C-0.33 1.32 -0.66 2.64 -1 4 C-4.63 4 -8.26 4 -12 4 C-10 1 -10 1 -8.25 0.3125 C-5.48083033 -0.0721069 -2.79197653 -0.06345401 0 0 Z " fill="#121212" transform="translate(332,481)"/>
<path d="M0 0 C0 0.99 0 1.98 0 3 C-2.20809174 4.95331192 -4.61752311 6.38286433 -7.125 7.9375 C-9.86134919 9.90053311 -10.89302143 10.90046002 -12 14 C-12.26953125 11.765625 -12.26953125 11.765625 -12 9 C-10.13671875 6.796875 -10.13671875 6.796875 -7.6875 4.75 C-6.48673828 3.72132813 -6.48673828 3.72132813 -5.26171875 2.671875 C-3 1 -3 1 0 0 Z " fill="#242424" transform="translate(337,440)"/>
<path d="M0 0 C0.33 0 0.66 0 1 0 C1.1799928 5.21979128 0.97094808 9.07262981 -1 14 C-1.66 14 -2.32 14 -3 14 C-3.29341888 8.32723489 -3.00559652 5.00932754 0 0 Z " fill="#111111" transform="translate(515,306)"/>
<path d="M0 0 C0.43570313 0.37511719 0.87140625 0.75023437 1.3203125 1.13671875 C5.18607599 4.45859777 9.07657648 7.74642927 13 11 C12.67 11.99 12.34 12.98 12 14 C7.4857225 10.33133644 3.49848894 6.66465192 0 2 C0 1.34 0 0.68 0 0 Z " fill="#3B3B3B" transform="translate(516,228)"/>
<path d="M0 0 C0.66 0.33 1.32 0.66 2 1 C2 2.32 2 3.64 2 5 C-0.97 6.32 -3.94 7.64 -7 9 C-7 7.68 -7 6.36 -7 5 C-5.46875 3.515625 -5.46875 3.515625 -3.5 2.25 C-2.8503125 1.82203125 -2.200625 1.3940625 -1.53125 0.953125 C-1.0259375 0.63859375 -0.520625 0.3240625 0 0 Z " fill="#202020" transform="translate(251,444)"/>
<path d="M0 0 C-0.33 1.32 -0.66 2.64 -1 4 C-5.455 4.495 -5.455 4.495 -10 5 C-10 4.34 -10 3.68 -10 3 C-10.66 2.67 -11.32 2.34 -12 2 C-10.7625 1.67 -9.525 1.34 -8.25 1 C-7.55390625 0.814375 -6.8578125 0.62875 -6.140625 0.4375 C-4 0 -4 0 0 0 Z " fill="#333333" transform="translate(383,430)"/>
<path d="M0 0 C2.32472205 2.85306797 3.7508258 5.54074837 5 9 C3.02 9.99 3.02 9.99 1 11 C-0.625 8.875 -0.625 8.875 -2 6 C-1.1875 2.6875 -1.1875 2.6875 0 0 Z " fill="#202020" transform="translate(418,205)"/>
<path d="M0 0 C-0.47645208 4.28806873 -1.65902484 6.26647487 -5 9 C-5.66 9 -6.32 9 -7 9 C-6.6875 5.625 -6.6875 5.625 -6 2 C-3 0 -3 0 0 0 Z " fill="#222222" transform="translate(303,491)"/>
<path d="M0 0 C2.9719385 1.12451727 5.33440687 2.22293791 8 4 C8.6875 6.125 8.6875 6.125 9 8 C4.56541027 6.6062718 2.12621626 4.39417765 -1 1 C-0.67 0.67 -0.34 0.34 0 0 Z " fill="#1B1B1B" transform="translate(529,240)"/>
<path d="M0 0 C0.99 1.32 1.98 2.64 3 4 C1.35 7.63 -0.3 11.26 -2 15 C-3.06396981 10.74412077 -2.77540332 9.32535515 -1.5625 5.25 C-1.27503906 4.26515625 -0.98757813 3.2803125 -0.69140625 2.265625 C-0.46324219 1.51796875 -0.23507812 0.7703125 0 0 Z " fill="#C5C5C5" transform="translate(586,438)"/>
<path d="M0 0 C1.8871875 0.0309375 1.8871875 0.0309375 3.8125 0.0625 C2.8225 1.5475 2.8225 1.5475 1.8125 3.0625 C-1.0078125 3.35546875 -1.0078125 3.35546875 -4.3125 3.25 C-5.95605469 3.20939453 -5.95605469 3.20939453 -7.6328125 3.16796875 C-8.47585938 3.13316406 -9.31890625 3.09835937 -10.1875 3.0625 C-6.61118771 0.67829181 -4.20439261 -0.06892447 0 0 Z " fill="#1B1B1B" transform="translate(500.1875,362.9375)"/>
<path d="M0 0 C0.33 0 0.66 0 1 0 C0.03644647 11.52164009 0.03644647 11.52164009 -1 17 C-1.99 16.34 -2.98 15.68 -4 15 C-3.52229477 13.06213915 -3.04278429 11.12472326 -2.5625 9.1875 C-2.29566406 8.10855469 -2.02882813 7.02960938 -1.75390625 5.91796875 C-1.23922588 3.9259157 -0.65062825 1.95188476 0 0 Z " fill="#404040" transform="translate(497,256)"/>
<path d="M0 0 C2.83022097 3.99560608 1.76210446 7.42737323 1 12 C0.67 11.34 0.34 10.68 0 10 C-0.99 10.33 -1.98 10.66 -3 11 C-2.32829194 7.1936543 -1.27253436 3.64793184 0 0 Z " fill="#414141" transform="translate(437,430)"/>
<path d="M0 0 C8.57142857 0.85714286 8.57142857 0.85714286 12 3 C12 3.66 12 4.32 12 5 C12.66 5.66 13.32 6.32 14 7 C12.68 7 11.36 7 10 7 C10 6.34 10 5.68 10 5 C9.01 4.67 8.02 4.34 7 4 C4.65314689 3.03010139 2.32964856 2.01097956 0 1 C0 0.67 0 0.34 0 0 Z " fill="#2C2C2C" transform="translate(564,361)"/>
<path d="M0 0 C3.63559661 3.43361902 6.36113346 6.7973607 9 11 C5.78475695 9.59155282 3.67816132 7.89655214 1.25 5.375 C0.63640625 4.74335938 0.0228125 4.11171875 -0.609375 3.4609375 C-1.06828125 2.97882813 -1.5271875 2.49671875 -2 2 C-1.34 1.34 -0.68 0.68 0 0 Z " fill="#373737" transform="translate(443,213)"/>
<path d="M0 0 C0.33 0 0.66 0 1 0 C1.35858439 3.85478218 1.2754818 5.57759458 -0.875 8.875 C-1.57625 9.57625 -2.2775 10.2775 -3 11 C-3.66 11 -4.32 11 -5 11 C-4.32902328 6.80639551 -2.1441606 3.59665648 0 0 Z " fill="#2C2C2C" transform="translate(578,415)"/>
<path d="M0 0 C0.66 0 1.32 0 2 0 C2.125 7.625 2.125 7.625 1 11 C0.34 11 -0.32 11 -1 11 C-1.14285714 3.57142857 -1.14285714 3.57142857 0 0 Z " fill="#1C1C1C" transform="translate(464,269)"/>
<path d="M0 0 C0.66 0 1.32 0 2 0 C2 2.64 2 5.28 2 8 C1.34 7.34 0.68 6.68 0 6 C-1.32 6.99 -2.64 7.98 -4 9 C-2.94124926 5.59687262 -1.99097846 2.98646769 0 0 Z " fill="#D2D2D2" transform="translate(511,421)"/>
<path d="M0 0 C0.33 0 0.66 0 1 0 C0.67 3.63 0.34 7.26 0 11 C-0.99 10.34 -1.98 9.68 -3 9 C-2.5020163 5.26512223 -2.12508244 3.18762365 0 0 Z " fill="#0B0B0B" transform="translate(490,290)"/>
<path d="M0 0 C0.99 0.33 1.98 0.66 3 1 C4.1875 3.5625 4.1875 3.5625 5 6 C3.68 6.33 2.36 6.66 1 7 C-0.0625 4.625 -0.0625 4.625 -1 2 C-0.67 1.34 -0.34 0.68 0 0 Z " fill="#111111" transform="translate(421,213)"/>
<path d="M0 0 C1.32 0.66 2.64 1.32 4 2 C4 2.66 4 3.32 4 4 C-1.75 5.125 -1.75 5.125 -4 4 C-3 2 -3 2 0 0 Z " fill="#050505" transform="translate(561,113)"/>
<path d="M0 0 C1.07310858 3.27185553 0.89263102 5.42947592 0.0625 8.75 C-0.22947266 9.94882812 -0.22947266 9.94882812 -0.52734375 11.171875 C-0.68332031 11.77515625 -0.83929687 12.3784375 -1 13 C-1.99 12.01 -2.98 11.02 -4 10 C-2.8905928 6.51329166 -1.73662334 3.22515763 0 0 Z " fill="#C1C1C1" transform="translate(553,440)"/>
<path d="M0 0 C0.99 0.66 1.98 1.32 3 2 C2.01 3.98 1.02 5.96 0 8 C-0.99 8 -1.98 8 -3 8 C-2.45276317 4.62537285 -1.9451 2.91765 0 0 Z " fill="#353535" transform="translate(486,429)"/>
<path d="M0 0 C0.33 0 0.66 0 1 0 C1 1.98 1 3.96 1 6 C0.34 6 -0.32 6 -1 6 C-1.12375 6.639375 -1.2475 7.27875 -1.375 7.9375 C-1.58125 8.618125 -1.7875 9.29875 -2 10 C-2.99 10.495 -2.99 10.495 -4 11 C-3.5247412 9.35303396 -3.04468109 7.70745272 -2.5625 6.0625 C-2.29566406 5.14597656 -2.02882813 4.22945313 -1.75390625 3.28515625 C-1 1 -1 1 0 0 Z " fill="#2F2F2F" transform="translate(469,419)"/>
<path d="M0 0 C0 2.64 0 5.28 0 8 C-0.66 7.67 -1.32 7.34 -2 7 C-2.66 7.66 -3.32 8.32 -4 9 C-3.4140625 2.84765625 -3.4140625 2.84765625 -3 1 C-1 0 -1 0 0 0 Z " fill="#262626" transform="translate(492,284)"/>
<path d="M0 0 C0.66 0.99 1.32 1.98 2 3 C1.01 3.495 1.01 3.495 0 4 C-0.33 4.99 -0.66 5.98 -1 7 C-0.01 7.33 0.98 7.66 2 8 C1.67 8.66 1.34 9.32 1 10 C-0.32 9.34 -1.64 8.68 -3 8 C-2.45276317 4.62537285 -1.9451 2.91765 0 0 Z " fill="#C8C8C8" transform="translate(213,477)"/>
<path d="M0 0 C0.33 0 0.66 0 1 0 C0.67 3.3 0.34 6.6 0 10 C-0.66 9.34 -1.32 8.68 -2 8 C-2.99 8.495 -2.99 8.495 -4 9 C-2.94124926 5.59687262 -1.99097846 2.98646769 0 0 Z " fill="#BABABA" transform="translate(413,445)"/>
<path d="M0 0 C0.66 0.66 1.32 1.32 2 2 C1.64644564 4.26274788 1.02455574 5.95088852 0 8 C-0.66 8 -1.32 8 -2 8 C-2 5.69 -2 3.38 -2 1 C-1.34 0.67 -0.68 0.34 0 0 Z " fill="#E6E6E6" transform="translate(497,435)"/>
<path d="M0 0 C0.66 0.66 1.32 1.32 2 2 C-0.31 2.33 -2.62 2.66 -5 3 C-5 2.34 -5 1.68 -5 1 C-5.99 0.67 -6.98 0.34 -8 0 C-4.96083486 -0.97687451 -3.01586454 -1.105817 0 0 Z " fill="#353535" transform="translate(240,533)"/>
<path d="M0 0 C1.32 0.33 2.64 0.66 4 1 C3.01 1 2.02 1 1 1 C1 1.928125 1 2.85625 1 3.8125 C1 5.875 1 7.9375 1 10 C0.01 10.66 -0.98 11.32 -2 12 C-2.625 10.125 -2.625 10.125 -3 8 C-2.34 7.34 -1.68 6.68 -1 6 C-0.60235737 4.01178687 -0.26224651 2.01055661 0 0 Z " fill="#414141" transform="translate(232,451)"/>
<path d="M0 0 C0.66 0.66 1.32 1.32 2 2 C1.53846154 8.46153846 1.53846154 8.46153846 -1 11 C-1.125 3.375 -1.125 3.375 0 0 Z " fill="#363636" transform="translate(427,290)"/>
<path d="M0 0 C0.33 0 0.66 0 1 0 C1.125 6.75 1.125 6.75 0 9 C-0.66 9 -1.32 9 -2 9 C-2.25 3.375 -2.25 3.375 0 0 Z " fill="#1A1A1A" transform="translate(494,270)"/>
<path d="M0 0 C0.33 0 0.66 0 1 0 C1.25 7.625 1.25 7.625 -1 11 C-1.66 10.34 -2.32 9.68 -3 9 C-2.01 6.03 -1.02 3.06 0 0 Z " fill="#313131" transform="translate(666,237)"/>
<path d="M0 0 C1.32 1.32 2.64 2.64 4 4 C3.67 4.66 3.34 5.32 3 6 C2.01 6.33 1.02 6.66 0 7 C-0.38133299 5.0085944 -0.71325582 3.00720923 -1 1 C-0.67 0.67 -0.34 0.34 0 0 Z " fill="#242424" transform="translate(432,196)"/>
<path d="M0 0 C-1.07401108 2.91517292 -1.77810176 4.77810176 -4 7 C-4.99 6.34 -5.98 5.68 -7 5 C-2.25 0 -2.25 0 0 0 Z " fill="#373737" transform="translate(320,470)"/>
<path d="M0 0 C0.33 0 0.66 0 1 0 C0.67 2.97 0.34 5.94 0 9 C-0.99 9 -1.98 9 -3 9 C-2.01 6.03 -1.02 3.06 0 0 Z " fill="#1D1D1D" transform="translate(471,457)"/>
<path d="M0 0 C-0.33 1.65 -0.66 3.3 -1 5 C-2.98 5.66 -4.96 6.32 -7 7 C-5.84933177 3.5479953 -4.01648928 0 0 0 Z " fill="#282828" transform="translate(563,455)"/>
<path d="M0 0 C3.125 -0.1875 3.125 -0.1875 6 0 C6 0.66 6 1.32 6 2 C3.29120665 3.35439668 0.99066732 3.06501451 -2 3 C-1.34 2.01 -0.68 1.02 0 0 Z " fill="#161616" transform="translate(229,534)"/>
<path d="M0 0 C0.33 0.99 0.66 1.98 1 3 C-0.875 6.1875 -0.875 6.1875 -3 9 C-3.33 9 -3.66 9 -4 9 C-4.25 6.75 -4.25 6.75 -4 4 C-2 1.6875 -2 1.6875 0 0 Z " fill="#0C0C0C" transform="translate(643,477)"/>
<path d="M0 0 C0.33 0.99 0.66 1.98 1 3 C-1.64 3 -4.28 3 -7 3 C-7 2.34 -7 1.68 -7 1 C-4.53721199 -0.231394 -2.7204945 -0.07159196 0 0 Z " fill="#282828" transform="translate(251,471)"/>
<path d="M0 0 C0.33 0.66 0.66 1.32 1 2 C1.66 2 2.32 2 3 2 C2.67 3.98 2.34 5.96 2 8 C1.01 7.34 0.02 6.68 -1 6 C-0.67 4.02 -0.34 2.04 0 0 Z " fill="#222222" transform="translate(500,434)"/>
<path d="M0 0 C1.65 0 3.3 0 5 0 C5.33 1.32 5.66 2.64 6 4 C4.35 3.67 2.7 3.34 1 3 C0.67 2.01 0.34 1.02 0 0 Z " fill="#050505" transform="translate(575,364)"/>
<path d="M0 0 C0.99 0.33 1.98 0.66 3 1 C0.42215154 3.64752004 -1.91648098 5.94432065 -5 8 C-3.8141763 4.62496331 -2.72426311 2.35277269 0 0 Z " fill="#272727" transform="translate(417,127)"/>
<path d="M0 0 C-1.39332574 3.36720387 -2.9789286 4.9859524 -6 7 C-6.33 6.01 -6.66 5.02 -7 4 C-2.25 0 -2.25 0 0 0 Z " fill="#060606" transform="translate(219,470)"/>
<path d="M0 0 C0.6875 1.8125 0.6875 1.8125 1 4 C-0.4375 5.75 -0.4375 5.75 -2 7 C-2.66 6.67 -3.32 6.34 -4 6 C-4 4 -4 4 -2 1.875 C-1.34 1.25625 -0.68 0.6375 0 0 Z " fill="#0E0E0E" transform="translate(405,455)"/>
<path d="M0 0 C0.66 0.33 1.32 0.66 2 1 C1.67 2.65 1.34 4.3 1 6 C0.01 6 -0.98 6 -2 6 C-1.125 1.125 -1.125 1.125 0 0 Z " fill="#070707" transform="translate(506,424)"/>
<path d="M0 0 C0.33 0 0.66 0 1 0 C1 2.97 1 5.94 1 9 C0.67 7.68 0.34 6.36 0 5 C-0.99 4.67 -1.98 4.34 -3 4 C-2.02727325 2.64664105 -1.0260734 1.31337396 0 0 Z " fill="#D3D3D3" transform="translate(581,417)"/>
<path d="M0 0 C2 3 2 3 1.75 5.5 C1 8 1 8 -1 11 C-0.67 7.37 -0.34 3.74 0 0 Z " fill="#696969" transform="translate(509,328)"/>
<path d="M0 0 C0.33 0.99 0.66 1.98 1 3 C1.66 3 2.32 3 3 3 C3 4.65 3 6.3 3 8 C2.34 7.34 1.68 6.68 1 6 C0.34 6.66 -0.32 7.32 -1 8 C-0.67 5.36 -0.34 2.72 0 0 Z " fill="#333333" transform="translate(459,290)"/>
<path d="M0 0 C0.33 0 0.66 0 1 0 C1 2.31 1 4.62 1 7 C0.01 7 -0.98 7 -2 7 C-1.125 1.125 -1.125 1.125 0 0 Z " fill="#0F0F0F" transform="translate(462,286)"/>
<path d="M0 0 C1.32 0.66 2.64 1.32 4 2 C2.68 3.32 1.36 4.64 0 6 C-1.125 2.25 -1.125 2.25 0 0 Z " fill="#0F0F0F" transform="translate(426,119)"/>
</svg>
