<?xml version="1.0" encoding="UTF-8"?>
<svg version="1.1" xmlns="http://www.w3.org/2000/svg" width="32" height="32">
<path d="M0 0 C0.55171875 0.22558594 1.1034375 0.45117188 1.671875 0.68359375 C0.351875 2.00359375 -0.968125 3.32359375 -2.328125 4.68359375 C4.271875 5.01359375 10.871875 5.34359375 17.671875 5.68359375 C17.671875 6.67359375 17.671875 7.66359375 17.671875 8.68359375 C7.276875 9.17859375 7.276875 9.17859375 -3.328125 9.68359375 C-1.678125 11.33359375 -0.028125 12.98359375 1.671875 14.68359375 C-1.328125 15.68359375 -1.328125 15.68359375 -3.7734375 14.609375 C-4.65773438 14.07699219 -5.54203125 13.54460938 -6.453125 12.99609375 C-7.34257813 12.47660156 -8.23203125 11.95710938 -9.1484375 11.421875 C-11.328125 9.68359375 -11.328125 9.68359375 -12.1328125 7.4765625 C-12.19726562 6.88488281 -12.26171875 6.29320312 -12.328125 5.68359375 C-10.75465324 4.64762475 -9.16890954 3.63027643 -7.578125 2.62109375 C-6.69640625 2.05261719 -5.8146875 1.48414063 -4.90625 0.8984375 C-2.328125 -0.31640625 -2.328125 -0.31640625 0 0 Z " fill="#242424" transform="translate(13.328125,8.31640625)"/>
<path d="M0 0 C0.55171875 0.22171875 1.1034375 0.4434375 1.671875 0.671875 C0.351875 1.991875 -0.968125 3.311875 -2.328125 4.671875 C4.271875 5.001875 10.871875 5.331875 17.671875 5.671875 C17.671875 6.001875 17.671875 6.331875 17.671875 6.671875 C8.671875 6.671875 -0.328125 6.671875 -9.328125 6.671875 C-10.318125 7.331875 -11.308125 7.991875 -12.328125 8.671875 C-12.328125 7.681875 -12.328125 6.691875 -12.328125 5.671875 C-10.28125 4.03125 -10.28125 4.03125 -7.578125 2.421875 C-6.69640625 1.88046875 -5.8146875 1.3390625 -4.90625 0.78125 C-2.328125 -0.328125 -2.328125 -0.328125 0 0 Z " fill="#939393" transform="translate(13.328125,8.328125)"/>
<path d="M0 0 C2.875 -0.1875 2.875 -0.1875 6 0 C6.66 0.99 7.32 1.98 8 3 C7.01 3.33 6.02 3.66 5 4 C2.3125 2.625 2.3125 2.625 0 1 C0 0.67 0 0.34 0 0 Z " fill="#6A6A6A" transform="translate(7,20)"/>
</svg>
