<?xml version="1.0" encoding="UTF-8"?>
<svg version="1.1" xmlns="http://www.w3.org/2000/svg" width="512" height="512">
<path d="M0 0 C1.28188199 0.76661026 2.56436483 1.53221662 3.84741211 2.296875 C7.15835023 4.27485005 10.45963943 6.26830744 13.75756836 8.2678833 C15.60976953 9.39039219 17.46369111 10.50999106 19.31835938 11.62841797 C26.29573465 15.83717546 33.25747265 20.07116994 40.21240234 24.31689453 C45.99093008 27.84421642 51.77635596 31.36019019 57.5625 34.875 C58.13686798 35.22401367 58.71123596 35.57302734 59.30300903 35.93261719 C69.03956964 41.84770851 78.8039102 47.71567157 88.5774231 53.56945801 C98.31998805 59.40538908 108.03846581 65.27965023 117.73980713 71.18383789 C125.08431135 75.65352664 132.44467438 80.09526777 139.82617188 84.50366211 C156.02676228 94.18417483 156.02676228 94.18417483 163 98.5625 C164.02738281 99.20445312 165.05476563 99.84640625 166.11328125 100.5078125 C169.838265 103.30013719 172.21087272 106.00761816 173.6875 110.4375 C174.11289776 115.54227311 174.07787119 119.26813421 171.19140625 123.73486328 C165.20367457 130.51383093 155.88723946 134.72496591 148.0625 139 C139.60845506 143.67574632 131.20626291 148.42119741 122.875 153.3125 C114.21899135 158.38922478 105.53027106 163.40524607 96.8125 168.375 C84.48701217 175.40311901 72.19027644 182.47990601 59.90527344 189.57861328 C55.58445545 192.07472164 51.26213478 194.5682209 46.93969727 197.06152344 C44.77862994 198.30809962 42.61765924 199.55484331 40.45678711 200.80175781 C34.92952088 203.99119112 29.40119139 207.17875949 23.87109375 210.36328125 C21.62238482 211.65883505 19.37368675 212.95440771 17.125 214.25 C16.04524902 214.87148926 14.96549805 215.49297852 13.85302734 216.13330078 C9.02450155 218.91673405 4.2053511 221.71268974 -0.58203125 224.56640625 C-1.36956787 225.03522217 -2.15710449 225.50403809 -2.96850586 225.98706055 C-4.39530521 226.83930982 -5.81952795 227.69589572 -7.24047852 228.55786133 C-13.27329207 232.16405077 -18.32779424 233.27337462 -25.3125 232.4375 C-29.96608349 230.88362178 -33.8867885 228.86085627 -36.3125 224.4375 C-38.14864625 218.92906124 -38.20609816 212.78622171 -36.125 207.3125 C-33.04906309 202.08237158 -27.78145793 199.58676709 -22.63671875 196.73388672 C-18.89290187 194.64568634 -15.18998334 192.48702568 -11.47949219 190.34033203 C-9.2526831 189.05319542 -7.02411514 187.76909773 -4.79394531 186.48779297 C3.19992526 181.89396399 11.14183252 177.21928675 19.0625 172.5 C28.21779172 167.04893957 37.42379902 161.70102881 46.6875 156.4375 C62.14830598 147.65094777 77.43978973 138.58843547 92.6875 129.4375 C91.86666613 129.43652319 91.04583225 129.43554638 90.20012462 129.43453997 C41.575046 129.37629634 -7.04998785 129.30252111 -55.67501117 129.20851372 C-61.5105541 129.19724525 -67.34609728 129.18610685 -73.18164062 129.17504883 C-74.34341591 129.17284514 -75.50519119 129.17064146 -76.70217179 129.168371 C-95.5254032 129.13297697 -114.34863456 129.10812473 -133.17188694 129.08715298 C-152.47933447 129.0654077 -171.78673873 129.0323694 -191.09414947 128.98879844 C-203.01248416 128.9622598 -214.93076491 128.94458072 -226.84912769 128.93815396 C-235.01663341 128.93290685 -243.18407119 128.91671268 -251.35154052 128.89183434 C-256.06713746 128.87779614 -260.78261274 128.86865718 -265.49823189 128.87249184 C-269.81383655 128.87589487 -274.12918106 128.86557887 -278.44473241 128.84426448 C-280.00740402 128.83898369 -281.57010256 128.83877517 -283.13277401 128.84410437 C-285.25517909 128.85060613 -287.37672257 128.83872886 -289.49905586 128.82226086 C-290.67846721 128.82036225 -291.85787855 128.81846365 -293.07302964 128.81650752 C-298.04846851 128.23439732 -301.28113876 126.58035975 -304.625 122.875 C-308.37261306 117.46178113 -307.88322725 111.86404518 -307.3125 105.4375 C-305.85732814 101.4112732 -302.96715554 98.60745173 -299.3125 96.4375 C-295.79493887 95.27787024 -292.44584192 95.30715593 -288.76076889 95.2988348 C-288.10106452 95.29599258 -287.44136016 95.29315036 -286.76166475 95.29022202 C-284.54159777 95.28187167 -282.32158295 95.28060654 -280.10150146 95.27928162 C-278.49762544 95.2747165 -276.89375061 95.26971655 -275.28987718 95.26431805 C-270.87510654 95.25072183 -266.46034361 95.24331429 -262.0455575 95.23689139 C-257.2875646 95.22889397 -252.52958778 95.21519393 -247.77160645 95.20217896 C-239.52559665 95.18040687 -231.27958523 95.16226505 -223.03356171 95.14657402 C-211.11112787 95.12388207 -199.18871183 95.0957383 -187.26629308 95.06625474 C-167.92395584 95.01857056 -148.58161134 94.97530861 -129.23925781 94.93481445 C-110.44758539 94.89546373 -91.65591943 94.85403852 -72.86425781 94.80981445 C-71.70635442 94.80709018 -70.54845103 94.80436591 -69.35545966 94.80155908 C-63.54672247 94.78787967 -57.73798538 94.77415939 -51.92924833 94.76041877 C-3.72367904 94.64644102 44.48190426 94.53963453 92.6875 94.4375 C91.96337921 94.02009048 91.23925842 93.60268097 90.49319458 93.17262268 C87.74372123 91.58755185 84.99439018 90.00223454 82.24514771 88.41676331 C80.49532457 87.40774521 78.74534524 86.39899801 76.99536133 85.39025879 C64.5454949 78.21002499 52.13647852 70.9603188 39.72851562 63.70800781 C36.75684497 61.97143165 33.78478845 60.23551852 30.8125 58.5 C29.82677002 57.92427246 28.84104004 57.34854492 27.82543945 56.75537109 C21.56975428 53.10600993 15.2986441 49.48457173 9.01782227 45.87866211 C4.67770833 43.38354244 0.34515732 40.87551659 -3.98535156 38.36376953 C-6.25834087 37.0478108 -8.53320674 35.73584139 -10.81152344 34.42919922 C-14.25992854 32.44998263 -17.69272831 30.44457225 -21.125 28.4375 C-22.17486084 27.83881104 -23.22472168 27.24012207 -24.30639648 26.62329102 C-30.78929751 22.79828861 -35.62334694 19.43999176 -38.125 12.03125 C-38.7210501 5.37535726 -37.36395684 1.01647431 -33.125 -4.3125 C-21.45318874 -13.64994901 -11.23022303 -6.82335132 0 0 Z " fill="#000000" transform="translate(323.3125,145.5625)"/>
</svg>
