<?xml version="1.0" encoding="UTF-8"?>
<svg version="1.1" xmlns="http://www.w3.org/2000/svg" width="64" height="64">
<path d="M0 0 C0.62132812 0.391875 1.24265625 0.78375 1.8828125 1.1875 C2.50414062 1.538125 3.12546875 1.88875 3.765625 2.25 C10.62521869 6.52611035 14.82446272 13.4804369 16.8828125 21.1875 C17.67485162 30.07491567 17.78212394 38.41951278 12.8828125 46.1875 C12.5321875 46.80882812 12.1815625 47.43015625 11.8203125 48.0703125 C7.54420215 54.92990619 0.5898756 59.12915022 -7.1171875 61.1875 C-16.00460317 61.97953912 -24.34920028 62.08681144 -32.1171875 57.1875 C-33.04917969 56.6615625 -33.04917969 56.6615625 -34 56.125 C-40.85959369 51.84888965 -45.05883772 44.8945631 -47.1171875 37.1875 C-47.90922662 28.30008433 -48.01649894 19.95548722 -43.1171875 12.1875 C-42.7665625 11.56617188 -42.4159375 10.94484375 -42.0546875 10.3046875 C-33.73233229 -3.04575731 -13.65305461 -7.47543675 0 0 Z M-38.1796875 10.625 C-43.67586697 18.70840542 -45.17430457 25.45512873 -44.1171875 35.1875 C-43.18187957 38.74075316 -42.10309023 42.07913052 -40.1171875 45.1875 C-39.1271875 45.5175 -38.1371875 45.8475 -37.1171875 46.1875 C-36.85502441 45.64746338 -36.59286133 45.10742676 -36.32275391 44.55102539 C-35.1354782 42.11424834 -33.93897372 39.68211923 -32.7421875 37.25 C-32.3296875 36.39986328 -31.9171875 35.54972656 -31.4921875 34.67382812 C-31.09257812 33.86494141 -30.69296875 33.05605469 -30.28125 32.22265625 C-29.91467285 31.4737915 -29.5480957 30.72492676 -29.17041016 29.95336914 C-28.1171875 28.1875 -28.1171875 28.1875 -26.1171875 27.1875 C-29.12004195 35.01258541 -32.55138798 42.60423302 -36.1171875 50.1875 C-34.72542118 51.15173026 -33.3285652 52.10861602 -31.9296875 53.0625 C-31.15238281 53.59617188 -30.37507813 54.12984375 -29.57421875 54.6796875 C-26.05675376 56.83825902 -23.27355115 58.1875 -19.1171875 58.1875 C-18.61628398 54.72987431 -18.43801808 51.62829211 -19.1171875 48.1875 C-21.42409743 45.3089216 -24.06846168 43.24266785 -27.1171875 41.1875 C-26.4571875 39.8675 -25.7971875 38.5475 -25.1171875 37.1875 C-22.94844498 37.69353992 -21.11751123 38.18733813 -19.1171875 39.1875 C-19.1171875 35.5575 -19.1171875 31.9275 -19.1171875 28.1875 C-16.4771875 28.1875 -13.8371875 28.1875 -11.1171875 28.1875 C-11.1171875 30.1675 -11.1171875 32.1475 -11.1171875 34.1875 C-10.1271875 34.5175 -9.1371875 34.8475 -8.1171875 35.1875 C-6.9296875 37.75 -6.9296875 37.75 -6.1171875 40.1875 C-4.7971875 40.1875 -3.4771875 40.1875 -2.1171875 40.1875 C-1.6221875 42.6625 -1.6221875 42.6625 -1.1171875 45.1875 C-1.8390625 45.70699219 -2.5609375 46.22648437 -3.3046875 46.76171875 C-4.2328125 47.45910156 -5.1609375 48.15648437 -6.1171875 48.875 C-7.509375 49.90173828 -7.509375 49.90173828 -8.9296875 50.94921875 C-11.38337535 53.00138202 -11.38337535 53.00138202 -11.4296875 55.95703125 C-11.275 57.06111328 -11.275 57.06111328 -11.1171875 58.1875 C-4.91734863 57.86119269 -0.06688269 54.70169037 4.8828125 51.1875 C5.3778125 50.1975 5.3778125 50.1975 5.8828125 49.1875 C5.24819338 47.331001 5.24819338 47.331001 4.16040039 45.28857422 C3.75990982 44.4878952 3.35941925 43.68721619 2.9467926 42.86227417 C2.50415573 41.99764557 2.06151886 41.13301697 1.60546875 40.2421875 C1.1601329 39.3571756 0.71479706 38.4721637 0.25596619 37.56033325 C-1.17348183 34.72389574 -2.61393457 31.89320931 -4.0546875 29.0625 C-5.02351434 27.14489882 -5.99162292 25.22693458 -6.95898438 23.30859375 C-9.33672196 18.59731203 -11.72352735 13.89071009 -14.1171875 9.1875 C-14.7771875 9.1875 -15.4371875 9.1875 -16.1171875 9.1875 C-17.28873043 11.47679053 -18.45456824 13.76868362 -19.6171875 16.0625 C-19.95105469 16.71347656 -20.28492187 17.36445313 -20.62890625 18.03515625 C-22.48562467 21.4399471 -22.48562467 21.4399471 -23.1171875 25.1875 C-24.1071875 25.1875 -25.0971875 25.1875 -26.1171875 25.1875 C-22.8171875 18.2575 -19.5171875 11.3275 -16.1171875 4.1875 C-15.4571875 4.1875 -14.7971875 4.1875 -14.1171875 4.1875 C-7.1871875 18.0475 -0.2571875 31.9075 6.8828125 46.1875 C9.94206489 45.51730377 9.94206489 45.51730377 11.05078125 43.359375 C14.3376717 35.55143599 15.68340641 27.55238432 12.9296875 19.34765625 C11.7311066 16.82532619 10.40723501 14.52523173 8.8828125 12.1875 C7.861875 10.57875 7.861875 10.57875 6.8203125 8.9375 C1.14575263 2.76950014 -6.91334967 -0.18092615 -15.1171875 -0.5625 C-24.49464087 -0.09621779 -32.1896639 3.3066448 -38.1796875 10.625 Z M-16.1171875 30.1875 C-16.28527169 32.29155391 -16.45160698 34.39574758 -16.6171875 36.5 C-16.71 37.67175781 -16.8028125 38.84351563 -16.8984375 40.05078125 C-17.19012593 44.23338505 -16.97599889 48.20381759 -16.6171875 52.375 C-16.524375 53.46167969 -16.4315625 54.54835938 -16.3359375 55.66796875 C-16.22765625 56.91513672 -16.22765625 56.91513672 -16.1171875 58.1875 C-15.4571875 58.1875 -14.7971875 58.1875 -14.1171875 58.1875 C-13.36291453 53.20843741 -13.36291453 53.20843741 -13.1171875 48.1875 C-13.1171875 44.85416667 -13.1171875 41.52083333 -13.1171875 38.1875 C-13.2668519 36.78974142 -13.43439237 35.3938129 -13.6171875 34 C-13.7821875 32.741875 -13.9471875 31.48375 -14.1171875 30.1875 C-14.7771875 30.1875 -15.4371875 30.1875 -16.1171875 30.1875 Z " fill="#000000" transform="translate(47.1171875,2.8125)"/>
</svg>
