<?xml version="1.0" encoding="UTF-8"?>
<svg version="1.1" xmlns="http://www.w3.org/2000/svg" width="512" height="512">
<path d="M0 0 C4.42866259 1.54959168 7.54677785 4.55992129 10.96484375 7.6875 C11.57489258 8.24018555 12.18494141 8.79287109 12.81347656 9.36230469 C19.66357166 15.58757114 26.33975348 21.81145343 32.37011719 28.84545898 C34.50523948 31.31170174 36.77160556 33.64416566 39.02734375 36 C43.96233768 41.27536883 48.30409926 46.94009411 52.58984375 52.75 C53.20609619 53.58378174 53.82234863 54.41756348 54.45727539 55.27661133 C58.83240374 61.29017997 58.83240374 61.29017997 59.96484375 64.6875 C61.41486534 64.68335193 61.41486534 64.68335193 62.8941803 64.67912006 C86.42208825 64.61250386 109.94998395 64.56321437 133.47796631 64.53206348 C144.85595045 64.51659852 156.23387227 64.495516 167.61181641 64.46118164 C177.52951379 64.43126803 187.44716602 64.4119223 197.36490726 64.40523452 C202.61565298 64.4013256 207.86626957 64.39214667 213.11697388 64.37030983 C218.06140041 64.34991378 223.00564488 64.34367254 227.95010948 64.34817696 C229.76249875 64.34735315 231.57489425 64.34140614 233.38724709 64.32988358 C235.86759855 64.3148905 238.34726848 64.31857097 240.82763672 64.32673645 C241.53972322 64.31799793 242.25180971 64.3092594 242.98547459 64.30025607 C249.02834377 64.35378635 254.56019754 65.64169465 259.2421875 69.625 C259.79003906 70.305625 260.33789062 70.98625 260.90234375 71.6875 C261.46824219 72.368125 262.03414063 73.04875 262.6171875 73.75 C265.60312589 78.04282736 265.11587482 82.60301602 265.1187439 87.61222839 C265.12312615 88.53611353 265.1275084 89.45999866 265.13202345 90.41188031 C265.14542361 93.5209268 265.15159306 96.62994493 265.15771484 99.73901367 C265.16561484 101.96290211 265.17388373 104.18678926 265.18249512 106.41067505 C265.2087268 113.72559381 265.2240238 121.04051833 265.23828125 128.35546875 C265.24364044 130.87229224 265.24901794 133.38911569 265.2544136 135.9059391 C265.2760439 146.37421089 265.29493234 156.84248255 265.306036 167.31077099 C265.30896562 170.02692354 265.3119273 172.74307606 265.31494141 175.45922852 C265.31568746 176.13430308 265.31643351 176.80937765 265.31720217 177.50490902 C265.32985228 188.43752288 265.36307132 199.36997398 265.40474324 210.30251177 C265.44718976 221.53044545 265.47032669 232.75829909 265.47595656 243.98632222 C265.4796121 250.2889593 265.49165549 256.59132046 265.5240593 262.89388084 C265.55411186 268.8241787 265.56046147 274.75403328 265.54867554 280.68439102 C265.54845457 282.85961496 265.55677854 285.0348593 265.57432938 287.21001244 C265.59701097 290.18315947 265.58873006 293.15469775 265.57284546 296.12785339 C265.58672755 296.98574957 265.60060963 297.84364574 265.61491239 298.72753876 C265.53459919 304.84153351 264.06663372 309.0846338 259.96484375 313.6875 C254.27292724 318.88275452 248.74434334 319.41394536 241.28215027 319.34933472 C240.22951958 319.35995693 239.1768889 319.37057915 238.09236032 319.38152325 C234.57714547 319.41075313 231.0629243 319.40440649 227.54760742 319.39794922 C225.02242409 319.41127755 222.49725093 319.42666995 219.97209167 319.44396973 C213.83188564 319.47969947 207.69204252 319.49167486 201.55174395 319.4910066 C196.55819324 319.49064894 191.56472309 319.49858513 186.57119179 319.51233292 C170.85420169 319.55475205 155.13746002 319.56726688 139.42041979 319.55766775 C127.03822395 319.55128137 114.65667426 319.59123715 102.27464517 319.65255271 C89.54469758 319.71509552 76.81506165 319.74399113 64.08495694 319.73764813 C56.94434927 319.73474496 49.80437294 319.74536027 42.66390038 319.79189682 C35.94685706 319.83534565 29.23141968 319.83178102 22.51425362 319.79693604 C20.05325202 319.79143964 17.59216018 319.8012218 15.13129425 319.82764053 C-5.7672926 320.03690094 -5.7672926 320.03690094 -12.88441467 314.30358887 C-14.31781384 312.81119208 -15.71076177 311.27742472 -17.03515625 309.6875 C-18.09591767 308.68879585 -19.16669534 307.70048744 -20.25244141 306.72900391 C-21.10112793 305.88257324 -21.94981445 305.03614258 -22.82421875 304.1640625 C-23.2978183 303.6923764 -23.77141785 303.22069031 -24.2593689 302.73471069 C-25.24111792 301.75429874 -26.22044401 300.77145422 -27.19726562 299.78613281 C-28.65928786 298.31337477 -30.13173113 296.85164955 -31.60546875 295.390625 C-37.84906949 289.15667827 -43.57727298 282.62544217 -49.03515625 275.6875 C-49.61458984 274.96208008 -50.19402344 274.23666016 -50.79101562 273.48925781 C-58.17615303 264.19755833 -64.89559505 254.6675331 -70.96679688 244.46875 C-71.93084085 242.86142257 -72.92648911 241.27315364 -73.92578125 239.6875 C-82.28221584 226.13652499 -87.77981099 210.97101104 -92.03515625 195.6875 C-92.47988281 194.13095703 -92.47988281 194.13095703 -92.93359375 192.54296875 C-103.37837075 152.26335845 -92.17482365 111.11363022 -71.77441406 75.94238281 C-64.80841941 64.18993785 -56.76240418 53.19193297 -48.03515625 42.6875 C-47.22304687 41.68976563 -46.4109375 40.69203125 -45.57421875 39.6640625 C-39.39123194 32.17904283 -32.75295625 25.19716362 -25.91015625 18.3125 C-25.08741211 17.48057129 -24.26466797 16.64864258 -23.41699219 15.79150391 C-6.69390292 -0.84833621 -6.69390292 -0.84833621 0 0 Z M-16.71069336 34.17285156 C-23.93023101 41.40073024 -30.81605926 48.57145836 -37.03515625 56.6875 C-38.19144531 58.11835938 -38.19144531 58.11835938 -39.37109375 59.578125 C-44.52830315 66.05310715 -49.15474735 72.7644026 -53.59765625 79.75 C-54.12270752 80.57177734 -54.64775879 81.39355469 -55.1887207 82.24023438 C-55.6755835 83.01818359 -56.16244629 83.79613281 -56.6640625 84.59765625 C-57.0979126 85.28996338 -57.5317627 85.98227051 -57.97875977 86.69555664 C-59.03796412 88.69279453 -59.58977883 90.47915741 -60.03515625 92.6875 C-50.97789124 97.40114472 -41.72555821 101.53821036 -32.34106445 105.54882812 C-29.94255732 106.57538226 -27.54839618 107.61165159 -25.15429688 108.6484375 C-23.62394909 109.30527301 -22.09335909 109.96154454 -20.5625 110.6171875 C-19.85004623 110.92647186 -19.13759247 111.23575623 -18.40354919 111.55441284 C-15.44867621 112.80886741 -13.2802388 113.6875 -10.03515625 113.6875 C-10.03515625 85.6375 -10.03515625 57.5875 -10.03515625 28.6875 C-12.46660928 28.6875 -15.09004685 32.56875525 -16.71069336 34.17285156 Z M6.96484375 28.6875 C6.96484375 56.7375 6.96484375 84.7875 6.96484375 113.6875 C13.89578664 111.41909688 13.89578664 111.41909688 20.64257812 108.81811523 C21.43950073 108.48444443 22.23642334 108.15077362 23.05749512 107.80699158 C23.88285767 107.45689529 24.70822021 107.10679901 25.55859375 106.74609375 C26.86769714 106.19357689 26.86769714 106.19357689 28.20324707 105.62989807 C30.02916999 104.85770002 31.85431727 104.08366548 33.67871094 103.30786133 C36.48195018 102.11773741 39.2896429 100.93857374 42.09765625 99.75976562 C43.87658259 99.00586989 45.65523854 98.25133574 47.43359375 97.49609375 C48.27515015 97.14397324 49.11670654 96.79185272 49.98376465 96.42906189 C50.75546997 96.09854324 51.52717529 95.7680246 52.32226562 95.42749023 C53.3441095 94.99472023 53.3441095 94.99472023 54.38659668 94.5532074 C56.15742293 93.77661084 56.15742293 93.77661084 56.96484375 91.6875 C55.65456628 89.05467079 54.28706503 86.57916382 52.77734375 84.0625 C52.32536621 83.30412842 51.87338867 82.54575684 51.40771484 81.7644043 C43.27597998 68.38768658 33.35138307 56.35953595 22.96484375 44.6875 C22.46500977 44.12450195 21.96517578 43.56150391 21.45019531 42.98144531 C16.85568227 37.82785883 12.38216987 33.0213609 6.96484375 28.6875 Z M70.96484375 81.6875 C71.21882431 82.24720993 71.47280487 82.80691986 71.73448181 83.3835907 C72.90555669 85.96713727 74.0738843 88.55191768 75.2421875 91.13671875 C75.64159546 92.01678589 76.04100342 92.89685303 76.45251465 93.80358887 C86.67141832 116.43749548 86.67141832 116.43749548 85.96484375 124.6875 C83.96484375 127.6875 83.96484375 127.6875 80.08984375 128.5 C76.71274378 128.94300361 74.85379786 128.50611681 71.96484375 126.6875 C70.86816406 124.80810547 70.86816406 124.80810547 70.04296875 122.5546875 C69.74003906 121.74902344 69.43710938 120.94335938 69.125 120.11328125 C68.82464844 119.27152344 68.52429688 118.42976563 68.21484375 117.5625 C67.89902344 116.71300781 67.58320313 115.86351562 67.2578125 114.98828125 C66.48066152 112.8923286 65.71946897 110.79162695 64.96484375 108.6875 C57.90444104 110.92164282 51.1605734 113.63332978 44.3671875 116.57421875 C43.41299927 116.98401978 42.45881104 117.3938208 41.47570801 117.81604004 C37.94953573 119.33170378 34.42609506 120.85371625 30.90234375 122.375 C23.00296875 125.778125 15.10359375 129.18125 6.96484375 132.6875 C6.96484375 155.1275 6.96484375 177.5675 6.96484375 200.6875 C15.17291161 198.23974524 15.17291161 198.23974524 23.20898438 195.43505859 C24.8799115 194.80958633 24.8799115 194.80958633 26.58459473 194.17147827 C27.7516394 193.73074982 28.91868408 193.29002136 30.12109375 192.8359375 C31.34517944 192.37643707 32.56926514 191.91693665 33.83044434 191.44351196 C36.39944185 190.47899678 38.96762487 189.51235643 41.53515625 188.54394531 C44.82703415 187.30236383 48.12036143 186.06468365 51.41422272 184.82837486 C54.56703573 183.64478392 57.71907332 182.45913767 60.87109375 181.2734375 C62.05433228 180.82866058 63.2375708 180.38388367 64.45666504 179.92562866 C65.54539917 179.51495148 66.6341333 179.10427429 67.75585938 178.68115234 C68.71609009 178.31935883 69.6763208 177.95756531 70.66564941 177.58480835 C72.94409828 176.73596801 72.94409828 176.73596801 74.96484375 175.6875 C75.36657323 173.81707699 75.36657323 173.81707699 75.45703125 171.57421875 C75.52277344 170.73826172 75.58851563 169.90230469 75.65625 169.04101562 C75.77780671 167.27585701 75.8924887 165.51021036 76 163.74414062 C76.52422861 157.30008519 76.52422861 157.30008519 78.81640625 154.11328125 C82.01373962 151.99141456 84.22102583 152.15266887 87.96484375 152.6875 C90.60709535 154.72217503 91.81278194 155.91162556 92.4609375 159.21875 C91.38642487 213.66072324 61.19721358 258.70564126 25.21508789 297.09594727 C22.94421101 299.08448339 22.94421101 299.08448339 21.96484375 301.6875 C50.6114902 301.7102902 79.25813551 301.72799809 107.90478924 301.73856533 C111.28328724 301.7398161 114.66178523 301.74111042 118.0402832 301.74243164 C119.04922222 301.74282511 119.04922222 301.74282511 120.07854385 301.74322652 C130.98366794 301.74758324 141.88878678 301.7554708 152.79390775 301.7646528 C163.97538457 301.77398928 175.15685958 301.7794807 186.33834034 301.78158849 C192.62224249 301.78289602 198.90613271 301.78598453 205.19003105 301.79323006 C211.09716226 301.79998637 217.00427658 301.80211776 222.91141129 301.80060768 C225.08633198 301.80088419 227.26125321 301.8028916 229.43617058 301.80670547 C232.39170795 301.81163666 235.34718043 301.81050043 238.30271912 301.80775452 C239.17526964 301.81066736 240.04782017 301.8135802 240.94681162 301.81658131 C244.76408456 302.1811561 244.76408456 302.1811561 247.96484375 300.6875 C248.06718307 297.89784515 248.1037002 295.13279918 248.09855652 292.34254456 C248.10195485 291.01418332 248.10195485 291.01418332 248.10542184 289.65898651 C248.11179227 286.66790838 248.11093054 283.67687521 248.11010742 280.68579102 C248.11309701 278.5509841 248.11649907 276.41617772 248.12028503 274.28137207 C248.12914943 268.4653639 248.13146416 262.64937042 248.13210082 256.83335614 C248.13304783 251.9871028 248.13672371 247.14085292 248.14027292 242.2946009 C248.14842669 230.86623933 248.1508563 219.43788563 248.15014648 208.00952148 C248.14954539 196.19945927 248.16010148 184.38944268 248.17589015 172.57939202 C248.1889418 162.45797845 248.19433139 152.33657985 248.19369107 142.21515793 C248.19343539 136.16205903 248.19632499 130.10900066 248.20686913 124.05591011 C248.21651031 118.36542618 248.21665681 112.67502186 248.20935249 106.98453522 C248.20830168 104.89066134 248.21069868 102.79678261 248.21671295 100.7029171 C248.22436611 97.85499575 248.21983277 95.0073539 248.21208191 92.15943909 C248.21979725 90.90269712 248.21979725 90.90269712 248.22766846 89.62056643 C248.38563085 85.18318918 248.38563085 85.18318918 245.96484375 81.6875 C242.83528846 81.38711035 242.83528846 81.38711035 239.08065796 81.44699097 C238.36432745 81.44528212 237.64799693 81.44357327 236.90995944 81.44181263 C234.49765273 81.43850526 232.08562113 81.44954173 229.67333984 81.46044922 C227.9489289 81.46101306 226.22451748 81.4606973 224.50010681 81.45956421 C219.80818437 81.45898865 215.11636347 81.47077569 210.4244647 81.48471212 C205.52505726 81.49718577 200.62564768 81.49838732 195.72622681 81.50076294 C186.44374585 81.50698763 177.1613118 81.52341179 167.87885153 81.54346192 C157.3131119 81.5657902 146.74737007 81.57680661 136.18161273 81.58685279 C114.44266352 81.60777719 92.70375658 81.64297233 70.96484375 81.6875 Z M-69.03515625 108.6875 C-76.67634135 130.00640643 -81.58618714 150.77538394 -79.03515625 173.6875 C-76.59020392 177.3549285 -75.06238096 177.70640005 -70.98071289 179.23120117 C-70.05116035 179.58298683 -70.05116035 179.58298683 -69.10282898 179.94187927 C-67.05381267 180.71442753 -64.99981532 181.47264436 -62.9453125 182.23046875 C-61.5201927 182.7635475 -60.09534562 183.29735583 -58.67076111 183.8318634 C-55.6845231 184.94994288 -52.69591606 186.06134986 -49.70532227 187.16772461 C-45.87024337 188.58676383 -42.04016336 190.01874319 -38.21161747 191.45530224 C-35.26975468 192.55819499 -32.32599254 193.65593739 -29.38155937 194.7519474 C-27.96850901 195.27825919 -26.55590474 195.80577024 -25.14375496 196.33449364 C-23.17064086 197.07197442 -21.19522805 197.8029102 -19.21899414 198.53198242 C-18.09473526 198.94929123 -16.97047638 199.36660004 -15.81214905 199.79655457 C-13.04512822 200.84024672 -13.04512822 200.84024672 -10.03515625 200.6875 C-10.03515625 178.2475 -10.03515625 155.8075 -10.03515625 132.6875 C-18.84203125 128.913125 -27.64890625 125.13875 -36.72265625 121.25 C-39.49631592 120.05834229 -42.26997559 118.86668457 -45.12768555 117.63891602 C-47.32975281 116.69769902 -49.53197234 115.75683815 -51.734375 114.81640625 C-52.8747522 114.32491089 -54.01512939 113.83341553 -55.19006348 113.32702637 C-56.28580688 112.86018433 -57.38155029 112.39334229 -58.51049805 111.91235352 C-59.45869919 111.5059816 -60.40690033 111.09960968 -61.38383484 110.68092346 C-63.9346576 109.72515583 -66.35319948 109.13676874 -69.03515625 108.6875 Z M-73.03515625 196.6875 C-69.13207544 219.16102844 -53.8319719 241.11418372 -40.03515625 258.6875 C-39.390625 259.52539062 -38.74609375 260.36328125 -38.08203125 261.2265625 C-33.52637119 267.06002965 -28.61995421 272.50076835 -23.58203125 277.9140625 C-21.5324234 280.14599743 -19.57832665 282.40666812 -17.66015625 284.75 C-14.95061216 288.07433954 -14.95061216 288.07433954 -10.03515625 290.6875 C-10.03515625 267.2575 -10.03515625 243.8275 -10.03515625 219.6875 C-25.29470383 213.5500435 -25.29470383 213.5500435 -40.6328125 207.625 C-41.48524033 207.30337891 -42.33766815 206.98175781 -43.21592712 206.65039062 C-44.96652783 205.99090443 -46.71754332 205.33251811 -48.46899414 204.67529297 C-51.15771356 203.66493179 -53.84347483 202.6469409 -56.52929688 201.62890625 C-58.25112852 200.98130918 -59.97312709 200.3341557 -61.6953125 199.6875 C-62.49203873 199.38448975 -63.28876495 199.08147949 -64.1096344 198.76928711 C-67.21055944 197.61288125 -69.69709041 196.6875 -73.03515625 196.6875 Z M68.96484375 195.6875 C61.02749804 198.66586012 53.09125533 201.64713294 45.1564188 204.63217068 C41.47225193 206.01802653 37.78770787 207.40286128 34.10229492 208.78540039 C30.54824134 210.11870377 26.99518786 211.45463962 23.44282341 212.7924366 C22.08475244 213.30334172 20.7263188 213.81328385 19.3675251 214.32226372 C17.47006306 215.03320355 15.57398433 215.7478321 13.67797852 216.46264648 C12.59654068 216.8690184 11.51510284 217.27539032 10.40089417 217.69407654 C8.05663722 218.46645786 8.05663722 218.46645786 6.96484375 219.6875 C6.8705139 221.89617831 6.84741944 224.10791521 6.85131836 226.31860352 C6.85117233 227.01125305 6.85102631 227.70390259 6.85087585 228.4175415 C6.85157501 230.71719446 6.85936747 233.01676737 6.8671875 235.31640625 C6.86905167 236.90681412 6.87047558 238.49722257 6.87147522 240.08763123 C6.87530046 244.2814593 6.8851308 248.47525295 6.8961792 252.66906738 C6.90639318 256.94538914 6.91097281 261.22171644 6.91601562 265.49804688 C6.92675306 273.89454708 6.94382956 282.29101926 6.96484375 290.6875 C11.83548606 286.57270867 16.37986238 282.36538216 20.71484375 277.6875 C21.32046143 277.03450928 21.9260791 276.38151855 22.55004883 275.70874023 C42.32931735 254.12922789 62.39389727 226.35266976 69.96484375 197.6875 C69.46984375 196.6975 69.46984375 196.6975 68.96484375 195.6875 Z " fill="#000000" transform="translate(150.03515625,96.3125)"/>
<path d="M0 0 C1.45108658 0.00273422 1.45108658 0.00273422 2.93148804 0.00552368 C17.26440977 0.05095174 31.21023917 0.55983928 45.3125 3.3125 C46.65803955 3.55395752 46.65803955 3.55395752 48.03076172 3.80029297 C96.71843124 12.61028149 141.74255908 36.05356547 177.3125 70.3125 C178.3015332 71.26068604 178.3015332 71.26068604 179.31054688 72.22802734 C188.79880305 81.37247479 197.5387044 90.66984009 205.3125 101.3125 C206.17056152 102.46355017 207.02863451 103.61459177 207.88671875 104.765625 C213.92427396 112.95525981 219.30707302 121.45788276 224.3125 130.3125 C224.7146875 131.01971191 225.116875 131.72692383 225.53125 132.45556641 C238.54775099 155.57510937 247.281052 180.72419753 252.625 206.6875 C252.77235596 207.39801514 252.91971191 208.10853027 253.0715332 208.84057617 C256.05794017 224.48291051 256.68730954 240.11926093 256.625 256 C256.62226578 257.45108658 256.62226578 257.45108658 256.61947632 258.93148804 C256.57404826 273.26440977 256.06516072 287.21023917 253.3125 301.3125 C253.15152832 302.20952637 252.99055664 303.10655273 252.82470703 304.03076172 C244.01471851 352.71843124 220.57143453 397.74255908 186.3125 433.3125 C185.68037598 433.97185547 185.04825195 434.63121094 184.39697266 435.31054688 C175.25252521 444.79880305 165.95515991 453.5387044 155.3125 461.3125 C154.16144983 462.17056152 153.01040823 463.02863451 151.859375 463.88671875 C143.66974019 469.92427396 135.16711724 475.30707302 126.3125 480.3125 C125.60528809 480.7146875 124.89807617 481.116875 124.16943359 481.53125 C101.04989063 494.54775099 75.90080247 503.281052 49.9375 508.625 C49.22698486 508.77235596 48.51646973 508.91971191 47.78442383 509.0715332 C32.14208949 512.05794017 16.50573907 512.68730954 0.625 512.625 C-0.34239105 512.62317719 -1.3097821 512.62135437 -2.30648804 512.61947632 C-16.63940977 512.57404826 -30.58523917 512.06516072 -44.6875 509.3125 C-45.58452637 509.15152832 -46.48155273 508.99055664 -47.40576172 508.82470703 C-96.09343124 500.01471851 -141.11755908 476.57143453 -176.6875 442.3125 C-177.34685547 441.68037598 -178.00621094 441.04825195 -178.68554688 440.39697266 C-188.17380305 431.25252521 -196.9137044 421.95515991 -204.6875 411.3125 C-205.54556152 410.16144983 -206.40363451 409.01040823 -207.26171875 407.859375 C-213.29927396 399.66974019 -218.68207302 391.16711724 -223.6875 382.3125 C-224.0896875 381.60528809 -224.491875 380.89807617 -224.90625 380.16943359 C-237.92275099 357.04989063 -246.656052 331.90080247 -252 305.9375 C-252.22103394 304.87172729 -252.22103394 304.87172729 -252.4465332 303.78442383 C-255.43294017 288.14208949 -256.06230954 272.50573907 -256 256.625 C-255.99817719 255.65760895 -255.99635437 254.6902179 -255.99447632 253.69351196 C-255.94904826 239.36059023 -255.44016072 225.41476083 -252.6875 211.3125 C-252.44604248 209.96696045 -252.44604248 209.96696045 -252.19970703 208.59423828 C-243.38971851 159.90656876 -219.94643453 114.88244092 -185.6875 79.3125 C-185.05537598 78.65314453 -184.42325195 77.99378906 -183.77197266 77.31445312 C-174.62752521 67.82619695 -165.33015991 59.0862956 -154.6875 51.3125 C-153.53644983 50.45443848 -152.38540823 49.59636549 -151.234375 48.73828125 C-143.04474019 42.70072604 -134.54211724 37.31792698 -125.6875 32.3125 C-124.98028809 31.9103125 -124.27307617 31.508125 -123.54443359 31.09375 C-100.42489063 18.07724901 -75.27580247 9.343948 -49.3125 4 C-48.24672729 3.77896606 -48.24672729 3.77896606 -47.15942383 3.5534668 C-31.51708949 0.56705983 -15.88073907 -0.06230954 0 0 Z M-41.6875 20.3125 C-42.7276123 20.51649414 -43.76772461 20.72048828 -44.83935547 20.93066406 C-88.38444099 29.74878455 -127.49290831 49.16507582 -160.30859375 79.15625 C-162.46260509 81.10865436 -164.65777726 82.99527359 -166.875 84.875 C-170.17604865 87.75351442 -173.03976735 90.8397919 -175.86328125 94.18359375 C-177.09669972 95.62302216 -178.36663567 97.03182121 -179.66796875 98.41015625 C-190.66816565 110.09160396 -199.79621731 123.58412227 -207.67871094 137.52978516 C-208.65868841 139.26158464 -209.66106727 140.98064787 -210.6640625 142.69921875 C-222.5280932 163.51511942 -229.80916169 186.70213824 -234.9375 210 C-235.08880371 210.67466309 -235.24010742 211.34932617 -235.39599609 212.04443359 C-238.39003852 226.5410119 -239.07003048 241.24416524 -239 256 C-238.99784485 256.82632935 -238.9956897 257.65265869 -238.99346924 258.50402832 C-238.93743364 271.96228827 -238.28831558 285.07430233 -235.6875 298.3125 C-235.38150879 299.87266846 -235.38150879 299.87266846 -235.06933594 301.46435547 C-226.25121545 345.00944099 -206.83492418 384.11790831 -176.84375 416.93359375 C-174.89134564 419.08760509 -173.00472641 421.28277726 -171.125 423.5 C-168.24648558 426.80104865 -165.1602081 429.66476735 -161.81640625 432.48828125 C-160.37697784 433.72169972 -158.96817879 434.99163567 -157.58984375 436.29296875 C-145.90839604 447.29316565 -132.41587773 456.42121731 -118.47021484 464.30371094 C-116.73841536 465.28368841 -115.01935213 466.28606727 -113.30078125 467.2890625 C-92.48488058 479.1530932 -69.29786176 486.43416169 -46 491.5625 C-45.32533691 491.71380371 -44.65067383 491.86510742 -43.95556641 492.02099609 C-29.4589881 495.01503852 -14.75583476 495.69503048 0 495.625 C1.23949402 495.62176727 1.23949402 495.62176727 2.50402832 495.61846924 C15.96228827 495.56243364 29.07430233 494.91331558 42.3125 492.3125 C43.3526123 492.10850586 44.39272461 491.90451172 45.46435547 491.69433594 C89.00944099 482.87621545 128.11790831 463.45992418 160.93359375 433.46875 C163.08760509 431.51634564 165.28277726 429.62972641 167.5 427.75 C170.80104865 424.87148558 173.66476735 421.7852081 176.48828125 418.44140625 C177.72169972 417.00197784 178.99163567 415.59317879 180.29296875 414.21484375 C191.29316565 402.53339604 200.42121731 389.04087773 208.30371094 375.09521484 C209.28368841 373.36341536 210.28606727 371.64435213 211.2890625 369.92578125 C223.1530932 349.10988058 230.43416169 325.92286176 235.5625 302.625 C235.71380371 301.95033691 235.86510742 301.27567383 236.02099609 300.58056641 C239.01503852 286.0839881 239.69503048 271.38083476 239.625 256.625 C239.62284485 255.79867065 239.6206897 254.97234131 239.61846924 254.12097168 C239.56243364 240.66271173 238.91331558 227.55069767 236.3125 214.3125 C236.00650879 212.75233154 236.00650879 212.75233154 235.69433594 211.16064453 C226.87621545 167.61555901 207.45992418 128.50709169 177.46875 95.69140625 C175.51634564 93.53739491 173.62972641 91.34222274 171.75 89.125 C168.87148558 85.82395135 165.7852081 82.96023265 162.44140625 80.13671875 C161.00197784 78.90330028 159.59317879 77.63336433 158.21484375 76.33203125 C146.53339604 65.33183435 133.04087773 56.20378269 119.09521484 48.32128906 C117.36341536 47.34131159 115.64435213 46.33893273 113.92578125 45.3359375 C93.10988058 33.4719068 69.92286176 26.19083831 46.625 21.0625 C45.95033691 20.91119629 45.27567383 20.75989258 44.58056641 20.60400391 C30.0839881 17.60996148 15.38083476 16.92996952 0.625 17 C-0.61449402 17.00323273 -0.61449402 17.00323273 -1.87902832 17.00653076 C-15.33728827 17.06256636 -28.44930233 17.71168442 -41.6875 20.3125 Z " fill="#000000" transform="translate(255.6875,-0.3125)"/>
</svg>
